<svg width="99" height="99" viewBox="0 0 99 99" fill="none" xmlns="http://www.w3.org/2000/svg">
<g filter="url(#filter0_d_5_24)">
<path d="M47.9537 0.0136836L47.7134 0.027375L40.8358 3.48922L33.9581 6.95106L16.9791 15.4349L0 23.9186V47.8822V71.8457L0.358208 72.0977L0.716417 72.3496L6.8776 75.435L13.0388 78.5204L30.0895 87.0328L47.1402 95.5453L47.5703 95.7727L48.0003 96L67.2001 86.4075L86.3998 76.815L91.1986 74.4227L95.9973 72.0304L95.9987 47.9257L96.0001 23.821L95.3553 23.5294L94.7105 23.2378L71.4523 11.6189L48.1943 0L47.9539 0.0136719L47.9537 0.0136836ZM48.8704 1.19433L49.7829 1.6117L72.6033 13.0175L95.4236 24.4234L95.3535 47.979L95.2834 71.5345L83.1043 77.6286L70.9252 83.7228L59.6059 89.3848L48.2865 95.0467L47.9999 95.0429L47.7134 95.0391L35.1044 88.7198L22.4955 82.4005L11.6762 77.0025L0.856831 71.6044L0.929907 47.9269L1.00298 24.2493L4.87163 22.3124L8.74028 20.3756L28.3491 10.5763L47.9579 0.776965L48.8704 1.19433ZM46.099 3.23401L45.7074 3.24464L24.5644 13.8274L3.42144 24.4102L3.50495 24.7888L3.58847 25.1673L14.045 30.417L24.5015 35.6668L24.8269 35.686L25.1523 35.7053L35.6787 19.9366L46.2052 4.16788L46.3479 3.69564L46.4906 3.22339L46.099 3.23399V3.23401ZM45.1665 4.21521H45.2274L37.5678 15.683L29.9081 27.1509L27.3916 30.9322L24.8751 34.7135H24.6235H24.3718L14.8367 29.9727L5.30148 25.232L4.94306 24.9426L4.58464 24.6533L7.37888 23.2617L10.1731 21.8702L27.3671 13.275L44.5611 4.67981L44.8334 4.44751L45.1056 4.21521H45.1665ZM49.9342 3.2276L49.576 3.22339V3.55714V3.89088L60.1534 19.7361L70.7307 35.5813L71.1836 35.661L71.6364 35.7407L82.2417 30.454L92.847 25.1673L92.7751 24.8104L92.7032 24.4536L71.4978 13.8427L50.2925 3.23182L49.9342 3.2276V3.2276ZM51.8247 4.80733L52.8716 5.37538L71.9282 14.8748L90.9849 24.3743L91.3237 24.6468L91.6625 24.9193L81.7437 29.8784L71.8249 34.8374L71.5184 34.8957L71.2118 34.954L64.2567 24.4817L57.3016 14.0094L54.0397 9.12432L50.7778 4.23928L51.8247 4.80733ZM48.053 4.51238L47.635 4.43762L47.0626 5.25624L46.4901 6.07485L36.6621 20.8199L26.834 35.5649L26.7089 36.131L26.5839 36.6971H47.9665H69.3491L69.3424 36.2632L69.3356 35.8292L58.9033 20.2082L48.471 4.58713L48.053 4.51238H48.053ZM58.1677 20.5621L68.3532 35.8292L58.2693 35.8943L48.1854 35.9594L37.9009 35.8943L27.6164 35.8292L37.7993 20.5621L47.9823 5.29497L58.1677 20.5621ZM2.69837 26.283H2.29253V47.607V68.931L2.65074 68.9279L3.00895 68.9249L4.20355 67.1303L5.39814 65.3357L14.7349 51.3406L24.0716 37.3456V37.0532V36.7607L13.5879 31.5219L3.1042 26.2831L2.69837 26.283ZM3.65372 27.3986L4.44178 27.7984L13.7552 32.4599L23.0686 37.1215L23.0195 37.3432L22.9703 37.5649L13.0342 52.4421L3.09807 67.3193L2.98187 67.4226L2.86567 67.5259V47.2624V26.9989L3.65372 27.3986ZM93.2025 26.5382L92.7043 26.5455L82.396 31.7243L72.0877 36.9031L72.006 37.1151L71.9243 37.3271L74.7203 41.5474L77.5163 45.7678L85.248 57.3494L92.9797 68.931H93.3253H93.671L93.7608 68.1252L93.8506 67.3193L93.7757 46.9252L93.7007 26.531L93.2025 26.5382V26.5382ZM93.0556 27.2749H93.1342V47.5247V67.7746L88.869 61.3481L84.6038 54.9216L78.7332 46.1302L72.8627 37.3388L82.9199 32.3068L92.977 27.2749H93.0556ZM48.1935 37.9368H28.1174L27.9401 38.1851L27.7628 38.4333L37.6401 53.2482L47.5175 68.0632H48.0041H48.4907L51.5665 63.476L54.6423 58.8889L61.3064 48.9079L67.9705 38.9269L68.1201 38.4319L68.2697 37.9368H48.1935ZM48.0069 38.6807H67.1044L67.0088 38.8849L66.9133 39.0891L57.4566 53.2485L47.9999 67.4079L47.7386 66.9917L47.4773 66.5754L38.3162 52.814L29.1552 39.0526L29.0323 38.8667L28.9094 38.6807H48.0069ZM25.5406 38.1853L25.0746 38.1857L21.7346 43.2063L18.3946 48.2268L11.1958 59.0031L3.99701 69.7794L4.13876 70.099L4.28051 70.4186H25.5044H46.7284L46.8836 70.0685L47.0389 69.7183L42.77 63.3117L38.501 56.9052L32.2538 47.5449L26.0065 38.1847L25.5406 38.1851V38.1853ZM25.5365 39.178L25.7118 39.1764L35.7812 54.2668L45.8507 69.3572V69.516V69.6748H25.4806H5.11045L5.20597 69.4636L5.30149 69.2525L15.3313 54.2159L25.3612 39.1793L25.5365 39.1777V39.178ZM70.4801 38.1891L70.0349 38.1848L59.5072 53.9725L48.9795 69.7603L49.1255 70.0895L49.2715 70.4187L70.2715 70.4149L91.2715 70.4111L91.6766 70.1892L92.0818 69.9673L89.9572 66.7746L87.8327 63.582L79.379 50.8877L70.9253 38.1934L70.4801 38.1891V38.1891ZM70.4872 39.1823L70.6387 39.1881L80.7412 54.3695L90.8437 69.5509L70.5939 69.6146L50.3441 69.6782L50.2296 69.5791L50.115 69.48L52.4963 65.9117L54.8775 62.3434L62.6067 50.76L70.3358 39.1766L70.4872 39.1823ZM26.0776 71.6585H4.87163V71.8761V72.0937L5.22984 72.3409L5.58805 72.5881L12.7522 76.17L19.9164 79.7518L33.1446 86.3671L46.3729 92.9825H46.8282H47.2835V82.3205V71.6585H26.0776ZM26.4448 72.1619L46.4418 72.1544L46.5795 72.4648L46.7172 72.7753L46.6421 82.5105L46.5671 92.2457L26.9373 82.4278L7.30746 72.6099L6.87761 72.3897L6.44776 72.1695L26.4448 72.1619V72.1619ZM70.1133 71.6585H49.0984L48.9074 71.8238L48.7163 71.9891V82.3696V92.7501L49.1399 92.8907L49.5634 93.0313L60.8174 87.4037L72.0715 81.7762L81.5985 77.0273L91.1254 72.2784L91.127 71.9684L91.1286 71.6585H70.1137H70.1133ZM69.5402 72.1544H89.5043L89.3849 72.2517L89.2655 72.349L84.1073 74.9353L78.9491 77.5216L66.6268 83.6768L54.3044 89.8319L51.9402 91.0308L49.576 92.2296V82.192V72.1544H69.5402Z" fill="#373737"/>
<path d="M42.9428 39.3793C41.669 40.3869 41.0315 41.7722 41.2382 43.3661L40.8405 42.8678H40.7836L41.0293 44.1968L41.4069 44.9166L40.4995 46.3563L41.1246 46.2456L39.8745 48.6266L40.5564 48.5713C39.8447 49.7899 39.7931 51.1949 38.9085 52.3367L40.2154 52.1705C40.0512 53.4366 40.344 54.6485 41.0677 55.7144H41.1246L41.295 54.607H41.3518C41.407 55.7838 42.4541 57.5011 43.3974 58.2062L43.5111 57.6525C44.6197 58.6477 45.8521 59.496 46.8678 60.5873C47.306 61.0583 47.8124 61.6273 47.9999 62.2485L48.5309 61.4733L49.5503 60.2553L52.6024 57.6525L52.7161 58.2062C53.659 57.5029 54.7065 55.7821 54.7616 54.607H54.8185L54.9889 55.7144H55.0457C55.7682 54.6504 56.0621 53.4355 55.8981 52.1705L57.2049 52.392L56.5361 51.2846L55.5571 48.5713L56.239 48.6266L54.9889 46.2456L55.614 46.3563L54.7067 44.9166L55.0842 44.1968L55.3298 42.8678H55.273L54.8753 43.3661C55.0664 41.8926 54.5084 40.1611 53.1138 39.3793C52.8718 40.3717 51.7753 41.1582 51.0114 41.783C50.7626 41.9866 50.4282 42.3787 50.1023 42.4477C49.8897 42.4927 49.6269 42.3585 49.4205 42.3149C48.977 42.2211 48.4536 42.1331 47.9999 42.1659C47.5423 42.199 47.0854 42.2254 46.6362 42.3271C46.4275 42.3744 46.168 42.5081 45.9544 42.4309C45.6249 42.3118 45.3109 41.9556 45.0452 41.7368C44.1744 41.0198 43.5416 40.3018 42.9428 39.3793ZM42.4883 40.8743C42.862 41.6536 43.4033 42.441 43.982 43.0893C44.1827 43.314 44.7324 43.6612 44.7545 43.9753C44.7693 44.1867 44.5071 44.3894 44.3631 44.513C43.8974 44.9126 43.3446 45.2382 42.7724 45.4703C42.9801 45.174 43.5577 44.6577 43.5436 44.2756C43.5354 44.0524 43.2289 43.7764 43.1142 43.5876C42.8243 43.111 42.6933 42.5767 42.4314 42.0926C42.1787 42.7312 42.0356 43.399 42.0337 44.086H41.9769C41.7494 43.1167 41.6078 41.6099 42.4883 40.8743ZM53.682 40.8743C54.3884 41.8413 54.3968 42.977 54.1366 44.086H54.0798L53.682 42.0372H53.6252C53.5436 42.5759 53.2824 43.1221 52.9993 43.5876C52.8822 43.7803 52.5783 44.0552 52.5699 44.284C52.556 44.6592 53.1366 45.1786 53.3411 45.4703C52.803 45.252 51.4632 44.6685 51.3624 44.0306C51.3157 43.7355 51.8472 43.3907 52.0291 43.2C52.6977 42.4994 53.0496 41.5836 53.682 40.8743ZM41.295 43.3661L41.2382 43.4215L41.295 43.3661ZM54.8753 43.3661L54.8185 43.4215L54.8753 43.3661ZM45.2725 46.3563C46.3108 46.9784 46.491 48.0776 47.1476 49.0142L45.2725 49.7895L45.443 49.3465C45.0027 49.5565 44.5504 49.5153 44.0793 49.4572L44.5907 49.0696V49.0142C44.0219 48.9571 43.6383 48.4794 43.5111 47.9622L44.5338 48.5981L46.068 48.7927C45.9065 47.7425 45.0552 47.3989 44.0793 47.5192L44.2497 47.796L43.3406 47.4084V47.353L44.8179 47.0208L44.4202 46.5778L45.443 46.9101L45.2725 46.3563ZM50.8978 46.3563L50.6705 46.9101L51.6933 46.5778L51.2956 47.0208L52.8297 47.353V47.4084L51.8638 47.796L52.0342 47.5192C51.0559 47.4439 50.2121 47.7094 50.0455 48.7927L51.5797 48.5981L52.6024 48.0175C52.4248 48.5168 52.0953 48.9568 51.5228 49.0142V49.0696L52.0342 49.4572C51.5631 49.5153 51.1108 49.5565 50.6705 49.3465L50.841 49.7895L48.9091 49.0142V48.9589C49.9059 48.2597 49.6422 46.8844 50.8978 46.3563ZM44.9316 47.9622C45.0923 48.2859 45.3391 48.2859 45.4998 47.9622H45.5566C45.5473 48.7319 44.6534 48.4706 44.9316 47.9622ZM50.6137 47.9622C50.7744 48.2859 51.0212 48.2859 51.1819 47.9622H51.2387C51.3095 48.6877 50.3657 48.545 50.6137 47.9622ZM41.6928 48.6266L41.295 50.2878L41.7496 50.1771L41.4655 51.6168L41.9769 51.506L41.0109 53.7764H40.9541C40.9347 52.8593 40.8432 51.9714 41.0677 51.0631L40.1586 51.506C40.6506 50.6414 40.8684 49.2467 41.6928 48.6266ZM54.5343 48.682L55.9549 51.506L55.0457 51.0631L55.1594 53.7764H55.1026L54.1366 51.506L54.648 51.6168L54.3639 50.1771L54.8185 50.2878L54.5343 48.682ZM42.6587 49.125C43.0376 49.6386 43.4704 50.0997 44.0793 50.3501C44.3264 50.4517 45.0081 50.4144 45.1573 50.5981C45.2934 50.7657 45.1835 51.0948 45.1591 51.2846L45.6136 50.7862H45.6705L45.5 51.8383C45.9545 51.3574 46.4317 50.8415 46.6932 50.2325H46.7501C46.7501 51.1709 46.1372 52.4419 46.3972 53.3334C46.592 54.0013 48.0106 54.2667 47.8048 54.9921C47.7237 55.278 47.4045 55.3119 47.1478 55.3281C46.5411 55.3666 45.8535 55.0841 45.4656 54.6061C44.9981 54.0302 45.4467 53.1933 45.5 52.5582L44.6477 53.9425H44.5907L44.7612 52.3367L43.9657 52.9458C44.0093 52.6299 44.3496 52.0207 44.2363 51.7325C44.1453 51.5008 43.8051 51.3326 43.6248 51.1688C43.1392 50.7281 42.4351 49.8338 42.6588 49.125H42.6587ZM53.5117 49.125C53.4582 49.7837 53.232 50.4055 52.7677 50.8969C52.5321 51.1463 52.0012 51.4173 51.8774 51.7325C51.7641 52.0207 52.1043 52.6299 52.1479 52.9458L51.3525 52.3367L51.5229 53.9425H51.4661L50.6138 52.5582C50.667 53.1933 51.1157 54.0302 50.6482 54.6061C50.2679 55.0746 49.5649 55.3833 48.966 55.3309C48.7094 55.3085 48.3905 55.2797 48.309 54.9921C48.1052 54.2738 49.523 53.997 49.7166 53.3334C49.9766 52.4416 49.3637 51.1711 49.3637 50.2325H49.4205C49.6821 50.8415 50.1593 51.3574 50.6138 51.8383L50.4433 50.7862H50.5001L50.9547 51.2846L50.8979 50.5093C52.1755 50.5093 52.6234 49.8932 53.5117 49.125H53.5117ZM42.1474 52.2813C42.2196 53.1725 42.4432 53.9393 42.8861 54.7177H42.9429L43.7952 53.7764L43.1702 56.6004C42.1884 55.8215 41.4514 53.4062 42.1474 52.2813ZM54.0231 52.2813C54.297 53.6582 54.1683 55.6286 52.9434 56.6004L52.3184 53.7764L53.1707 54.7177H53.2275L53.7716 53.4995L54.0231 52.2813ZM49.0796 53.1673H47.0341C47.3781 52.5115 48.7358 52.5121 49.0796 53.1673ZM44.3635 54.3301C44.3705 55.1583 44.7035 55.8282 44.9317 56.6004H44.9885L45.3294 55.4929H45.3862C45.3966 56.7012 46.0378 57.939 46.8636 58.8154L46.9772 58.0401H47.0341L47.8296 60.6427H47.7727C47.5359 60.2733 47.2326 59.9608 46.9255 59.6468C45.6324 58.3249 42.9815 56.4703 44.3635 54.3301ZM51.807 54.3301C51.919 54.8016 52.1237 55.275 52.0812 55.7698C51.8944 57.9468 49.4284 58.9467 48.3409 60.6427H48.2841L49.0796 58.0401H49.1364L49.2501 58.8154C50.0759 57.939 50.7171 56.7012 50.7274 55.4929H50.7842L51.1252 56.6004H51.182L51.5994 55.4376L51.807 54.3301ZM49.3637 55.6591C49.3478 55.9977 49.237 56.2707 48.966 56.4897L49.0228 56.102L48.0568 56.5929L47.0909 56.102L47.1477 56.4897C46.8767 56.2707 46.7659 55.9977 46.7499 55.6591L48.0568 55.5029L49.3637 55.6591Z" fill="#373737"/>
<path d="M48.2113 11.3624C48.2115 11.4912 48.2315 11.6742 48.2558 11.7691C48.2802 11.864 48.3137 12.0027 48.3305 12.0773C48.3471 12.1518 48.382 12.2128 48.4079 12.2128C48.4715 12.2128 48.6041 11.9508 48.7063 11.6233C48.7525 11.4753 48.8157 11.3457 48.8468 11.3353C48.9664 11.2955 49.3756 12.351 49.4417 12.8698C49.4808 13.1771 49.4387 13.991 49.3652 14.3451C49.3446 14.4444 49.3566 14.4807 49.4098 14.4807C49.5074 14.4807 50.0595 13.8239 50.192 13.5501L50.2979 13.3314L50.3839 13.4376C50.5601 13.6552 50.6269 14.5894 50.5017 15.0846C50.4527 15.2781 50.5465 15.2582 50.7852 15.0242C50.8952 14.9163 51.0068 14.8415 51.0333 14.8579C51.084 14.8892 51.0511 15.261 50.9708 15.5657C50.9457 15.6609 50.7457 15.9932 50.5264 16.3042C50.3071 16.6152 50.1505 16.8773 50.1783 16.8866C50.2062 16.8959 50.3944 16.8464 50.5964 16.7767C50.9855 16.6424 51.2892 16.61 51.2571 16.7063C51.2468 16.7373 50.9969 16.9758 50.7018 17.2363C50.1182 17.7514 49.7901 18.177 49.6616 18.5856C49.617 18.7276 49.5691 19.0933 49.5551 19.3984C49.5297 19.9551 49.5665 20.0812 49.6811 19.8297C49.7121 19.7618 49.8087 19.6629 49.896 19.6098C50.1096 19.4799 50.1831 19.5473 50.1831 19.8734C50.1831 20.0878 50.1999 20.1343 50.2926 20.1755C50.4343 20.2385 50.6065 20.7725 50.6541 21.2965C50.6779 21.5582 50.7089 21.6785 50.7526 21.6785C50.7877 21.6785 51.3005 21.1794 51.8921 20.5693C52.8464 19.5853 53.0926 19.3652 53.0915 19.497C53.0914 19.5173 53.0232 19.7669 52.9401 20.0516C52.8315 20.4234 52.7876 20.6804 52.784 20.9637C52.7793 21.3485 52.8175 21.5799 52.8858 21.5799C52.9045 21.5799 53.0835 21.4568 53.2836 21.3062C53.6716 21.0143 54.8121 20.4244 55.261 20.2834C55.6101 20.1738 56.0995 20.0944 56.21 20.1295C56.3714 20.1807 56.297 20.3139 55.9002 20.6844C55.6355 20.9316 55.4248 21.1864 55.265 21.4527C54.7971 22.2322 54.6903 22.5121 54.8282 22.5974C54.9185 22.6531 55.1199 22.6279 55.8526 22.4689C56.6982 22.2854 57.4624 22.2208 58.367 22.2561C59.5064 22.3006 59.5436 22.3649 58.6476 22.7401C57.914 23.0472 57.3912 23.3104 57.0473 23.5456C56.706 23.7791 55.8033 24.6897 55.8033 24.8005C55.8033 24.9252 55.9667 24.9816 56.3301 24.9825C56.5149 24.9829 56.9323 25.005 57.2577 25.0317C58.5727 25.1393 59.3828 25.4175 59.6845 25.8651C59.8985 26.1827 59.8672 26.2057 59.2603 26.1769C58.6921 26.15 58.3915 26.1883 57.5627 26.3935C56.9799 26.5378 56.6907 26.6484 56.6907 26.727C56.6907 26.7591 56.9181 26.9427 57.1961 27.135C58.6294 28.1269 59.8973 29.463 61.0562 31.2027C61.9011 32.4711 62.2199 33.1511 62.5196 34.3242C62.6932 35.0038 62.7418 35.8032 62.6094 35.8032C62.5701 35.8032 62.3552 35.5689 62.1318 35.2826C61.4966 34.4685 61.0891 34.0159 60.6095 33.5916C60.1409 33.177 57.5207 31.1936 57.4416 31.1936C57.416 31.1936 57.3827 31.421 57.3675 31.6989C57.3354 32.2847 57.2498 32.7221 57.1673 32.7213C57.1357 32.7209 57.0216 32.5529 56.9138 32.3476C56.3906 31.3511 55.1871 30.0473 54.0143 29.2064C53.3187 28.7077 52.1682 28.2125 51.9233 28.3065C51.8197 28.3462 51.8663 28.622 52.0628 29.1316C52.146 29.3474 52.2051 29.5331 52.194 29.5442C52.0727 29.6655 50.8771 28.1425 50.3828 27.2372C50.268 27.027 50.1567 26.8551 50.1353 26.8551C50.0722 26.8551 49.9819 27.1178 49.9407 27.421C49.9075 27.666 49.9149 27.7151 49.9971 27.7917C50.0905 27.8787 50.0904 27.8828 49.9895 28.0804C49.8654 28.3237 49.8657 28.317 49.9791 28.3466C50.0436 28.3635 50.1037 28.4785 50.181 28.7327C50.4161 29.5068 50.8175 30.0978 51.4411 30.5879C51.6831 30.7781 51.8414 30.9354 51.8163 30.9605C51.7495 31.0273 51.4339 31.0884 50.9719 31.1241C50.4903 31.1612 50.052 31.0734 49.7052 30.8702C49.509 30.7551 49.4678 30.7496 49.0344 30.7801C48.6648 30.8061 48.5216 30.7956 48.3173 30.7277C47.9974 30.6215 47.6183 30.3394 47.3397 30.0003C47.0924 29.6994 46.7122 28.9978 46.757 28.9252C46.7737 28.8982 46.8415 28.8896 46.9076 28.9062C46.9737 28.9228 47.0278 28.9247 47.0278 28.9103C47.0278 28.896 46.9534 28.7079 46.8625 28.4923C46.5981 27.8652 45.9343 26.9044 45.7656 26.9044C45.7277 26.9044 45.6967 26.9222 45.6967 26.944C45.6967 27.0348 45.0772 28.0218 44.7398 28.4686C44.326 29.0166 43.7924 29.6015 43.7474 29.5565C43.7308 29.5399 43.7965 29.3145 43.8935 29.0556C44.0826 28.5508 44.1114 28.347 43.9996 28.3041C43.7508 28.2086 42.5007 28.7638 41.8295 29.2679C40.6235 30.1735 39.4923 31.4198 38.9839 32.4032C38.8933 32.5783 38.7934 32.7216 38.7617 32.7217C38.6806 32.7221 38.5969 32.2916 38.5624 31.6971C38.5463 31.4183 38.5178 31.1806 38.4991 31.1691C38.4537 31.141 36.8794 32.2013 36.2299 32.6972C35.4653 33.281 34.763 34.0107 34.0359 34.977C33.6437 35.4981 33.3676 35.8222 33.3223 35.8146C33.1277 35.7819 33.2575 34.7124 33.5772 33.7138C33.8587 32.8347 34.363 31.9069 35.2019 30.7252C36.3129 29.1602 37.6411 27.8277 38.9056 27.0095C39.0886 26.8911 39.2383 26.7671 39.2383 26.734C39.2383 26.6543 39.0773 26.5846 38.5587 26.4401C37.7917 26.2263 37.2537 26.1507 36.6693 26.1748C36.0688 26.1995 36.0458 26.1842 36.2295 25.8829C36.5443 25.3667 37.5276 25.0761 39.2145 25.0008C39.6306 24.9823 39.9977 24.9506 40.0304 24.9304C40.1477 24.8578 40.0226 24.6383 39.6233 24.2165C39.0048 23.5631 38.4499 23.2149 37.2663 22.7374C36.7432 22.5264 36.5948 22.429 36.6746 22.3491C36.7561 22.2676 38.1117 22.2202 38.7946 22.2749C39.1336 22.3021 39.7104 22.3894 40.0764 22.4688C41.2643 22.7267 41.3267 22.6952 40.9824 22.0116C40.6719 21.395 40.4315 21.0599 40.0263 20.6791C39.6278 20.3044 39.5594 20.1802 39.7232 20.1282C39.8525 20.0871 40.4866 20.2179 40.883 20.3674C41.3984 20.5618 42.3293 21.0591 42.7042 21.3401C42.8885 21.4784 43.0529 21.578 43.0693 21.5615C43.1391 21.4918 43.1712 21.0371 43.129 20.7172C43.1039 20.5274 43.0245 20.1778 42.9525 19.9404C42.8804 19.7029 42.8343 19.4959 42.8498 19.4803C42.9023 19.4278 43.0576 19.5474 43.3773 19.8866C44.8501 21.4493 45.4711 22.0236 45.688 22.0236C45.8026 22.0236 45.7309 20.8724 45.5889 20.4331C45.5035 20.1688 45.4937 20.087 45.5419 20.0388C45.59 19.9907 45.644 20.0019 45.8019 20.0927C45.9114 20.1558 46.0117 20.1967 46.0248 20.1837C46.0378 20.1707 45.9907 20.0461 45.9201 19.9068C45.7945 19.6589 45.7913 19.5583 45.9092 19.5589C46.0897 19.5595 46.3527 19.6827 46.5554 19.8611C46.682 19.9726 46.7959 20.0535 46.8085 20.0409C46.8537 19.9957 46.5888 19.0673 46.39 18.5743C46.1335 17.938 45.9832 17.6417 45.817 17.4441C45.656 17.2528 45.1711 16.9044 44.8216 16.7289C44.3923 16.5133 44.4752 16.4651 45.1298 16.5499C45.3196 16.5745 45.4914 16.5783 45.5117 16.5584C45.5319 16.5384 45.5017 16.39 45.4445 16.2286C45.3168 15.868 45.2589 15.1542 45.3526 15.0963C45.3939 15.0708 45.4658 15.1153 45.5601 15.225L45.7043 15.3927L45.6721 15.246C45.5698 14.7792 45.5429 14.5283 45.5718 14.3103C45.61 14.0226 45.7881 13.5826 45.8572 13.6056C45.8836 13.6144 45.9444 13.7248 45.9922 13.8508C46.0996 14.1336 46.2801 14.4314 46.3442 14.4314C46.3745 14.4314 46.3776 14.2732 46.3525 14C46.2553 12.9399 46.325 12.6321 46.7638 12.1815C47.0365 11.9016 48.0535 11.1286 48.1494 11.1284C48.1901 11.1283 48.2112 11.208 48.2113 11.3624L48.2113 11.3624Z" fill="#373737"/>
<path d="M81.0936 66.5707C80.9885 66.501 80.8283 66.4182 80.7377 66.3866C80.6471 66.3551 80.5158 66.3073 80.446 66.2805C80.3761 66.2537 80.3074 66.2491 80.2934 66.2702C80.2589 66.322 80.4008 66.5722 80.6126 66.833C80.7083 66.9509 80.7797 67.0727 80.7713 67.1037C80.739 67.2228 79.6564 66.9846 79.1974 66.7574C78.9254 66.6228 78.2844 66.1474 78.0354 65.8956C77.9655 65.825 77.9295 65.8151 77.9006 65.8585C77.8478 65.9381 78.0843 66.7443 78.2358 67.0008L78.3569 67.2057L78.2236 67.2183C77.9506 67.2441 77.1524 66.7924 76.8164 66.4219C76.685 66.2771 76.6505 66.3644 76.712 66.6859C76.7403 66.834 76.7409 66.9656 76.7132 66.9784C76.6603 67.0027 76.3748 66.7744 76.1698 66.5438C76.1057 66.4718 75.943 66.1286 75.8082 65.7812C75.6733 65.4337 75.5444 65.164 75.5217 65.1817C75.4991 65.1994 75.4374 65.3796 75.3848 65.5822C75.2836 65.9724 75.1454 66.2376 75.0843 66.1593C75.0646 66.1341 75.0054 65.801 74.9529 65.4191C74.8489 64.664 74.6795 64.1657 74.4159 63.8396C74.3242 63.7262 74.0518 63.4889 73.8106 63.3122C73.3703 62.9898 73.2474 62.9515 73.3905 63.1813C73.4291 63.2433 73.4574 63.3758 73.4534 63.4757C73.4436 63.7204 73.3488 63.7438 73.0828 63.5671C72.908 63.4509 72.8608 63.4394 72.7771 63.4927C72.6489 63.5741 72.12 63.4253 71.6668 63.1801C71.4404 63.0577 71.3255 63.0178 71.3018 63.0534C71.2827 63.0821 71.4121 63.7708 71.5891 64.584C71.8746 65.8956 71.9208 66.2157 71.8139 66.1434C71.7973 66.1323 71.6307 65.9414 71.4435 65.7194C71.1991 65.4293 71.0133 65.2542 70.7841 65.0979C70.4728 64.8855 70.2633 64.7912 70.2262 64.847C70.2162 64.8622 70.2196 65.0749 70.2339 65.3197C70.2618 65.7945 70.1249 67.0444 69.9967 67.487C69.897 67.8312 69.6965 68.2733 69.608 68.3445C69.4788 68.4483 69.4105 68.3155 69.3233 67.7911C69.2651 67.4412 69.1714 67.1312 69.0408 66.8566C68.6584 66.0525 68.488 65.8138 68.3437 65.8801C68.2493 65.9235 68.1608 66.1014 67.8934 66.7853C67.5849 67.5744 67.2236 68.2328 66.7046 68.9515C66.0509 69.8568 65.9782 69.8524 66.1577 68.9181C66.3047 68.1533 66.3734 67.5842 66.3678 67.1763C66.3624 66.7714 66.1087 65.5416 66.0183 65.4816C65.9166 65.414 65.782 65.5167 65.5844 65.8127C65.4839 65.9632 65.2397 66.2917 65.0416 66.5427C64.2413 67.557 63.5754 68.0671 63.0468 68.0706C62.6717 68.0731 62.6699 68.0351 63.0223 67.5556C63.3522 67.1067 63.4838 66.8407 63.7655 66.0535C63.9636 65.4999 64.0301 65.2041 63.966 65.1615C63.9398 65.1441 63.6668 65.2301 63.3593 65.3526C61.7736 65.9843 59.9967 66.2945 57.9497 66.2971C56.4572 66.2992 55.7297 66.1906 54.6105 65.7994C53.962 65.5728 53.2837 65.1792 53.3554 65.0712C53.3767 65.0392 53.6842 64.9908 54.0387 64.9637C55.047 64.8867 55.6371 64.7996 56.243 64.6383C56.8352 64.4807 59.8729 63.4182 59.9157 63.3537C59.9296 63.3328 59.7622 63.1824 59.5437 63.0194C59.0832 62.6758 58.7728 62.3689 58.8181 62.3021C58.8356 62.2765 59.0345 62.2745 59.2603 62.2978C60.3567 62.411 62.0723 62.1358 63.3938 61.6348C64.1775 61.3377 65.2049 60.6675 65.261 60.4168C65.2847 60.3107 65.0345 60.1993 64.5123 60.0835C64.2912 60.0344 64.1077 59.982 64.1047 59.9669C64.0715 59.8023 65.9617 59.6523 66.9679 59.7396C67.2015 59.7599 67.4021 59.7623 67.4137 59.7448C67.4479 59.6933 67.2826 59.4773 67.0576 59.2794C66.8757 59.1195 66.8316 59.099 66.7246 59.1245C66.6031 59.1536 66.5998 59.1513 66.4932 58.9619C66.362 58.7288 66.3674 58.7327 66.2817 58.8092C66.233 58.8526 66.1066 58.8394 65.8574 58.7646C65.0985 58.5369 64.399 58.5441 63.6612 58.7871C63.375 58.8815 63.161 58.9254 63.1541 58.8912C63.1358 58.8005 63.2569 58.5101 63.4782 58.1138C63.7088 57.7009 64.018 57.391 64.3716 57.2182C64.5718 57.1205 64.5986 57.0899 64.8087 56.7198C64.9877 56.4043 65.0738 56.2932 65.2399 56.1633C65.4999 55.9599 65.9355 55.8035 66.363 55.76C66.7425 55.7214 67.5209 55.7914 67.5557 55.8673C67.5688 55.8956 67.539 55.9554 67.4896 56.0004C67.4402 56.0453 67.4094 56.0885 67.4211 56.0963C67.4328 56.104 67.6266 56.1453 67.8517 56.1879C68.5065 56.312 69.6499 56.2912 69.7413 56.1536C69.7619 56.1227 69.7641 56.0878 69.7463 56.076C69.6723 56.0268 69.2029 54.9866 69.0213 54.4693C68.7985 53.8348 68.6105 53.0826 68.6716 53.0703C68.6941 53.0657 68.8424 53.2415 69.001 53.4609C69.3103 53.8887 69.461 54.0226 69.5565 53.9547C69.7692 53.8034 69.9938 52.4829 69.9463 51.6622C69.8611 50.1878 69.4574 48.5897 68.9308 47.6421C68.837 47.4734 68.7743 47.3142 68.7914 47.2883C68.835 47.2219 69.2316 47.3869 69.7351 47.6809C69.9713 47.8189 70.1806 47.9244 70.2002 47.9154C70.2476 47.8936 70.2359 46.0349 70.1833 45.2364C70.1213 44.2964 69.9067 43.3281 69.5125 42.2114C69.3 41.6091 69.1852 41.2083 69.216 41.1754C69.3481 41.0344 70.1502 41.7198 70.7914 42.5217C71.356 43.2277 71.8395 44.1418 72.3489 45.4664C73.0234 47.2207 73.3906 49.0262 73.3728 50.5009C73.3701 50.7144 73.3902 50.9037 73.4172 50.9217C73.4823 50.9649 73.6264 50.8713 74.0253 50.5266C74.6153 50.0168 74.9684 49.6189 75.2655 49.1292C75.5707 48.626 75.5956 48.6155 75.7418 48.9286C75.9924 49.4651 75.6966 50.4246 74.8439 51.8414C74.6336 52.1909 74.4605 52.5075 74.4593 52.5451C74.4548 52.6801 74.7018 52.697 75.2621 52.5999C76.1303 52.4494 76.715 52.1855 77.7458 51.4788C78.2015 51.1664 78.3613 51.0981 78.3832 51.2065C78.4055 51.3172 77.7097 52.4486 77.2949 52.976C77.0891 53.2378 76.7054 53.661 76.4422 53.9165C75.5882 54.7457 75.5801 54.8137 76.3242 54.9033C76.9954 54.9841 77.399 54.9695 77.9292 54.8455C78.4508 54.7234 78.5892 54.7349 78.5429 54.8967C78.5063 55.0245 78.056 55.4708 77.7192 55.7132C77.2814 56.0282 76.3713 56.5182 75.939 56.6716C75.7263 56.7471 75.556 56.8271 75.5605 56.8495C75.5796 56.9442 75.9331 57.2167 76.2169 57.3557C76.3853 57.4381 76.7135 57.5627 76.9462 57.6326C77.1789 57.7026 77.3728 57.7771 77.377 57.7982C77.3914 57.8695 77.2098 57.9313 76.7598 58.0083C74.687 58.3629 73.8821 58.5582 73.7645 58.7351C73.7024 58.8286 74.6804 59.3939 75.1157 59.5162C75.3775 59.5897 75.4495 59.6261 75.4627 59.6914C75.4759 59.7568 75.4376 59.7948 75.2779 59.8743C75.1671 59.9295 75.0793 59.9891 75.0829 60.0068C75.0865 60.0245 75.2136 60.0536 75.3655 60.0715C75.6357 60.1034 75.7195 60.1553 75.6552 60.2511C75.5569 60.3981 75.3138 60.5458 75.0585 60.6145C74.899 60.6574 74.7712 60.7064 74.7747 60.7235C74.7871 60.7849 75.6879 61.0719 76.1977 61.1769C76.8558 61.3124 77.1789 61.3504 77.4302 61.3219C77.6734 61.2942 78.2204 61.0875 78.5529 60.8975C78.9614 60.6641 78.9558 60.7579 78.532 61.2459C78.4091 61.3874 78.3129 61.5255 78.3182 61.5528C78.3235 61.5801 78.4609 61.6359 78.6236 61.6767C78.9868 61.7679 79.6005 62.1075 79.5969 62.2153C79.5952 62.2628 79.5201 62.2973 79.3796 62.3148L79.1646 62.3415L79.3017 62.3948C79.738 62.5643 79.9572 62.6783 80.1193 62.82C80.3333 63.0071 80.5956 63.3908 80.5395 63.4346C80.5179 63.4514 80.395 63.4412 80.2663 63.4119C79.9775 63.3463 79.6367 63.3322 79.602 63.3845C79.5856 63.4092 79.713 63.4974 79.9494 63.625C80.8667 64.1201 81.0801 64.3438 81.2098 64.9459C81.2904 65.3199 81.3699 66.5684 81.3181 66.6468C81.2961 66.68 81.2197 66.6539 81.0936 66.5705V66.5707Z" fill="#373737"/>
<path d="M14.8103 66.4872C14.9155 66.4176 15.0756 66.3347 15.1662 66.3031C15.2568 66.2716 15.3881 66.2238 15.458 66.197C15.5279 66.1703 15.5965 66.1656 15.6106 66.1867C15.645 66.2385 15.5031 66.4887 15.2914 66.7495C15.1957 66.8674 15.1242 66.9892 15.1326 67.0202C15.1649 67.1393 16.2476 66.9011 16.7066 66.6739C16.9785 66.5393 17.6195 66.0639 17.8686 65.8121C17.9384 65.7415 17.9745 65.7316 18.0033 65.775C18.0562 65.8546 17.8196 66.6609 17.6681 66.9173L17.5471 67.1222L17.6803 67.1348C17.9533 67.1606 18.7515 66.7089 19.0876 66.3384C19.2189 66.1936 19.2534 66.2809 19.1919 66.6024C19.1636 66.7505 19.1631 66.8821 19.1907 66.8949C19.2437 66.9192 19.5292 66.6909 19.7342 66.4603C19.7982 66.3883 19.9609 66.0451 20.0958 65.6977C20.2306 65.3503 20.3595 65.0805 20.3822 65.0982C20.4049 65.1159 20.4665 65.2961 20.5191 65.4988C20.6204 65.8889 20.7586 66.1541 20.8197 66.0758C20.8394 66.0506 20.8985 65.7175 20.9511 65.3356C21.055 64.5805 21.2244 64.0822 21.4881 63.7561C21.5797 63.6427 21.8521 63.4054 22.0934 63.2287C22.5337 62.9063 22.6565 62.868 22.5135 63.0978C22.4749 63.1598 22.4466 63.2923 22.4506 63.3922C22.4604 63.6369 22.5551 63.6603 22.8211 63.4836C22.996 63.3674 23.0431 63.3559 23.1269 63.4092C23.255 63.4907 23.7839 63.3418 24.2371 63.0967C24.4635 62.9742 24.5785 62.9343 24.6022 62.9699C24.6212 62.9986 24.4919 63.6873 24.3148 64.5006C24.0293 65.8121 23.9832 66.1322 24.0901 66.0599C24.1066 66.0488 24.2732 65.8579 24.4604 65.6359C24.7049 65.3459 24.8907 65.1707 25.1199 65.0144C25.4311 64.802 25.6407 64.7077 25.6777 64.7635C25.6878 64.7787 25.6843 64.9914 25.67 65.2362C25.6422 65.711 25.779 66.9609 25.9072 67.4035C26.007 67.7477 26.2074 68.1898 26.2959 68.261C26.4251 68.3648 26.4935 68.232 26.5807 67.7076C26.6389 67.3577 26.7326 67.0477 26.8632 66.7731C27.2455 65.9691 27.4159 65.7303 27.5602 65.7966C27.6546 65.84 27.7431 66.0179 28.0105 66.7018C28.3191 67.4909 28.6804 68.1493 29.1994 68.868C29.8531 69.7733 29.9257 69.7689 29.7462 68.8346C29.5992 68.0698 29.5306 67.5007 29.5362 67.0928C29.5415 66.6879 29.7953 65.4582 29.8857 65.3981C29.9874 65.3305 30.122 65.4332 30.3195 65.7292C30.42 65.8797 30.6643 66.2082 30.8623 66.4592C31.6627 67.4735 32.3286 67.9836 32.8572 67.9871C33.2322 67.9896 33.234 67.9516 32.8817 67.4721C32.5518 67.0232 32.4202 66.7572 32.1385 65.97C31.9404 65.4164 31.8739 65.1206 31.938 65.0781C31.9641 65.0607 32.2372 65.1467 32.5446 65.2691C34.1304 65.9008 35.9073 66.2111 37.9543 66.2137C39.4468 66.2157 40.1743 66.1071 41.2935 65.7159C41.9419 65.4893 42.6203 65.0957 42.5486 64.9877C42.5273 64.9557 42.2198 64.9073 41.8652 64.8802C40.8569 64.8032 40.2669 64.7161 39.6609 64.5548C39.0688 64.3972 36.0311 63.3347 35.9882 63.2702C35.9744 63.2493 36.1418 63.0989 36.3602 62.9359C36.8207 62.5923 37.1311 62.2854 37.0858 62.2186C37.0683 62.193 36.8694 62.191 36.6436 62.2143C35.5472 62.3275 33.8316 62.0523 32.5102 61.5513C31.7264 61.2542 30.699 60.584 30.643 60.3333C30.6193 60.2272 30.8695 60.1159 31.3916 60C31.6128 59.951 31.7962 59.8985 31.7993 59.8834C31.8325 59.7188 29.9423 59.5688 28.936 59.6562C28.7024 59.6764 28.5018 59.6788 28.4903 59.6613C28.4561 59.6098 28.6214 59.3938 28.8464 59.1959C29.0283 59.036 29.0724 59.0155 29.1793 59.041C29.3009 59.0701 29.3042 59.0678 29.4108 58.8784C29.542 58.6453 29.5366 58.6492 29.6223 58.7257C29.671 58.7691 29.7973 58.7559 30.0466 58.6811C30.8054 58.4534 31.505 58.4606 32.2427 58.7037C32.529 58.798 32.743 58.8419 32.7499 58.8077C32.7682 58.7171 32.6471 58.4266 32.4258 58.0303C32.1951 57.6174 31.886 57.3075 31.5323 57.1347C31.3321 57.037 31.3053 57.0064 31.0953 56.6363C30.9162 56.3208 30.8301 56.2097 30.664 56.0798C30.4041 55.8764 29.9685 55.72 29.5409 55.6765C29.1615 55.6379 28.3831 55.7079 28.3482 55.7838C28.3352 55.8121 28.365 55.872 28.4144 55.9169C28.4637 55.9619 28.4946 56.005 28.4828 56.0128C28.4711 56.0205 28.2774 56.0618 28.0523 56.1045C27.3974 56.2285 26.2541 56.2077 26.1626 56.0701C26.1421 56.0392 26.1398 56.0043 26.1576 55.9925C26.2316 55.9433 26.7011 54.9031 26.8827 54.3858C27.1055 53.7513 27.2935 52.9991 27.2324 52.9868C27.2098 52.9823 27.0616 53.158 26.9029 53.3774C26.5936 53.8052 26.443 53.9391 26.3474 53.8712C26.1347 53.72 25.9102 52.3994 25.9576 51.5787C26.0429 50.1043 26.4466 48.5062 26.9732 47.5586C27.0669 47.3899 27.1297 47.2307 27.1126 47.2049C27.0689 47.1384 26.6724 47.3035 26.1689 47.5975C25.9326 47.7354 25.7233 47.8409 25.7038 47.8319C25.6564 47.8101 25.6681 45.9514 25.7207 45.1529C25.7826 44.2129 25.9973 43.2446 26.3914 42.1279C26.604 41.5256 26.7187 41.1248 26.688 41.0919C26.5559 40.9509 25.7538 41.6364 25.1125 42.4382C24.5479 43.1442 24.0645 44.0583 23.5551 45.383C22.8806 47.1372 22.5133 48.9427 22.5312 50.4174C22.5338 50.6309 22.5137 50.8203 22.4867 50.8382C22.4217 50.8814 22.2776 50.7878 21.8787 50.4431C21.2887 49.9333 20.9355 49.5354 20.6385 49.0457C20.3333 48.5425 20.3083 48.532 20.1621 48.8451C19.9116 49.3816 20.2074 50.3411 21.0601 51.7579C21.2704 52.1074 21.4435 52.424 21.4447 52.4616C21.4491 52.5966 21.2022 52.6135 20.6418 52.5164C19.7736 52.3659 19.1889 52.102 18.1581 51.3953C17.7025 51.0829 17.5426 51.0146 17.5208 51.123C17.4985 51.2337 18.1943 52.3651 18.609 52.8925C18.8149 53.1543 19.1986 53.5775 19.4618 53.833C20.3158 54.6622 20.3239 54.7302 19.5798 54.8198C18.9086 54.9006 18.5049 54.886 17.9747 54.762C17.4531 54.6399 17.3147 54.6514 17.3611 54.8133C17.3977 54.941 17.848 55.3873 18.1847 55.6297C18.6225 55.9447 19.5326 56.4347 19.965 56.5881C20.1777 56.6636 20.348 56.7436 20.3435 56.766C20.3244 56.8607 19.9709 57.1333 19.6871 57.2722C19.5187 57.3546 19.1905 57.4792 18.9578 57.5491C18.725 57.6191 18.5312 57.6936 18.5269 57.7147C18.5125 57.786 18.6942 57.8478 19.1441 57.9248C21.2169 58.2794 22.0219 58.4747 22.1394 58.6516C22.2015 58.7451 21.2235 59.3104 20.7882 59.4327C20.5264 59.5062 20.4544 59.5426 20.4412 59.6079C20.4281 59.6733 20.4664 59.7113 20.6261 59.7908C20.7369 59.846 20.8246 59.9057 20.8211 59.9233C20.8175 59.941 20.6903 59.9701 20.5385 59.988C20.2682 60.0199 20.1845 60.0718 20.2488 60.1676C20.3471 60.3146 20.5901 60.4623 20.8454 60.531C21.005 60.5739 21.1327 60.623 21.1293 60.6401C21.1169 60.7014 20.216 60.9884 19.7062 61.0934C19.0481 61.2289 18.7251 61.2669 18.4738 61.2384C18.2305 61.2107 17.6836 61.004 17.351 60.814C16.9425 60.5806 16.9481 60.6744 17.372 61.1624C17.4949 61.3039 17.5911 61.442 17.5858 61.4693C17.5805 61.4966 17.443 61.5524 17.2804 61.5932C16.9171 61.6845 16.3035 62.024 16.307 62.1318C16.3088 62.1793 16.3839 62.2138 16.5244 62.2313L16.7394 62.2581L16.6023 62.3113C16.166 62.4808 15.9468 62.5948 15.7846 62.7365C15.5706 62.9236 15.3083 63.3073 15.3645 63.3511C15.386 63.3679 15.5089 63.3577 15.6377 63.3284C15.9265 63.2628 16.2672 63.2487 16.3019 63.301C16.3184 63.3257 16.191 63.4139 15.9546 63.5415C15.0372 64.0367 14.8238 64.2603 14.6941 64.8624C14.6135 65.2365 14.5341 66.4849 14.5859 66.5633C14.6078 66.5965 14.6843 66.5704 14.8103 66.487V66.4872Z" fill="#373737"/>
<path d="M17.4698 42.1253L15.8431 42.0456C16.8677 41.3022 17.4707 39.9602 17.6919 38.7437L17.6278 38.7125C17.2484 39.264 16.7229 39.5028 16.1073 39.7156C16.6612 38.776 17.3565 37.5957 16.809 36.4888L16.1167 37.4201C16.4081 35.1143 14.9912 33.8887 13.1088 33.018L13.0775 33.082L13.765 34.9244C12.5356 32.9826 11.0389 32.277 8.82555 31.8802L8.7943 31.9443C9.6608 32.414 11.036 33.22 11.3351 34.2149C10.6966 33.6304 9.20176 32.9869 8.32702 33.0647C8.59755 33.5398 8.9477 34.1921 8.6808 34.7443C8.33931 35.4508 7.31425 35.9858 6.7978 36.6017C5.72571 37.8804 5.13834 39.4191 4.86136 41.0505C4.11224 45.4627 5.80997 49.9965 6.27459 54.3512C6.51541 56.6083 6.56296 58.9654 5.59563 61.0791C5.07802 62.2102 4.13672 62.8949 3.33482 63.7833C9.07306 59.5283 7.67529 51.7541 7.31513 46.0548C7.22106 44.3535 7.11327 42.5455 7.62533 40.8919C8.07981 39.4244 9.16879 38.3121 10.6628 37.8756C11.6626 37.5835 12.6257 37.7096 13.0902 38.7458C13.2283 39.0538 13.2915 39.3824 13.3407 39.7144C13.4106 40.1858 13.4072 40.6732 13.3476 41.1454L13.1163 40.3187C12.5163 40.3246 12.2607 41.0125 11.7167 41.2191C10.9426 41.513 10.2085 41.2886 9.42686 41.2156C9.64783 41.7643 9.73894 42.038 9.47212 42.586L10.1441 42.8345L10.2363 42.4829L10.4613 42.672L10.491 42.4486L11.5099 42.3111C11.0775 42.4968 10.2297 43.0907 9.79403 42.9017L9.73463 43.3486L9.63931 43.3814L9.41274 43.033C9.20107 43.5714 9.13616 43.7504 8.52824 43.8705L8.46573 43.9986C8.93021 44.6389 9.7164 45.1144 10.5175 45.1582C10.7174 44.7136 11.2686 44.616 11.7086 44.5051C12.8145 44.2262 14.2617 43.9186 15.3555 44.3458L15.3868 44.2817L14.4242 43.6535L14.4554 43.5894L15.7649 43.8316L15.7962 43.7675L14.9618 43.2018L14.993 43.1378C15.8982 43.1692 16.8372 42.7616 17.4699 42.1252L17.4698 42.1253ZM13.3084 43.6643L11.9739 44.1237C12.281 43.7494 12.8682 43.1659 13.3084 43.6643Z" fill="#373737"/>
<path d="M78.4036 42.1253L80.0303 42.0456C79.0058 41.3022 78.4028 39.9602 78.1816 38.7437L78.2457 38.7125C78.625 39.264 79.1506 39.5028 79.7662 39.7156C79.2123 38.776 78.5169 37.5957 79.0644 36.4888L79.7567 37.4201C79.4654 35.1143 80.8822 33.8887 82.7647 33.018L82.7959 33.082L82.1084 34.9244C83.3378 32.9826 84.8345 32.277 87.0479 31.8802L87.0792 31.9443C86.2127 32.414 84.8374 33.22 84.5383 34.2149C85.1769 33.6304 86.6717 32.9869 87.5464 33.0647C87.2759 33.5398 86.9258 34.1921 87.1927 34.7443C87.5341 35.4508 88.5592 35.9858 89.0757 36.6017C90.1477 37.8804 90.7351 39.4191 91.0121 41.0505C91.7612 45.4627 90.0635 49.9965 89.5989 54.3512C89.358 56.6083 89.3105 58.9654 90.2778 61.0791C90.7954 62.2102 91.7367 62.8949 92.5386 63.7833C86.8004 59.5283 88.1982 51.7541 88.5583 46.0548C88.6524 44.3535 88.7602 42.5455 88.2481 40.8919C87.7936 39.4244 86.7047 38.3121 85.2107 37.8756C84.2109 37.5835 83.2478 37.7096 82.7832 38.7458C82.6451 39.0538 82.582 39.3824 82.5327 39.7144C82.4628 40.1858 82.4662 40.6732 82.5259 41.1454L82.7571 40.3187C83.3571 40.3246 83.6128 41.0125 84.1567 41.2191C84.9308 41.513 85.6649 41.2886 86.4466 41.2156C86.2256 41.7643 86.1345 42.038 86.4013 42.586L85.7294 42.8345L85.6372 42.4829L85.4122 42.672L85.3825 42.4486L84.3636 42.3111C84.796 42.4968 85.6438 43.0907 86.0794 42.9017L86.1388 43.3486L86.2341 43.3814L86.4607 43.033C86.6724 43.5714 86.7373 43.7504 87.3452 43.8705L87.4077 43.9986C86.9432 44.6389 86.157 45.1144 85.356 45.1582C85.156 44.7136 84.6049 44.616 84.1649 44.5051C83.059 44.2262 81.6117 43.9186 80.518 44.3458L80.4867 44.2817L81.4493 43.6535L81.418 43.5894L80.1085 43.8316L80.0772 43.7675L80.9117 43.2018L80.8804 43.1378C79.9752 43.1692 79.0363 42.7616 78.4036 42.1252L78.4036 42.1253ZM82.565 43.6643L83.8995 44.1237C83.5924 43.7494 83.0052 43.1659 82.565 43.6643Z" fill="#373737"/>
<path d="M69.367 29.5347L70.1432 28.1029C70.3697 29.3483 71.3183 30.4728 72.3191 31.1989L72.3751 31.1546C72.0422 30.5739 72.0544 29.9968 72.129 29.3497C72.7363 30.2558 73.4992 31.3936 74.734 31.3793L74.1942 30.3521C76.1466 31.6129 77.8648 30.8664 79.4647 29.5464L79.4204 29.4905L77.462 29.3126C79.7447 29.0451 81.0287 28.0014 82.3446 26.178L82.3004 26.1221C81.5018 26.6998 80.1799 27.5905 79.1536 27.4294C79.957 27.1069 81.1842 26.038 81.4927 25.2158C80.9474 25.254 80.2077 25.2872 79.8256 24.8076C79.3365 24.1939 79.298 23.0382 78.9664 22.306C78.278 20.7861 77.1452 19.5904 75.7945 18.6344C72.1416 16.049 67.3197 15.6165 63.1931 14.15C61.0542 13.3899 58.9089 12.4123 57.4224 10.6252C56.6269 9.66896 56.4171 8.52399 55.9635 7.41652C57.3148 14.4313 64.9278 16.537 70.2213 18.6798C71.7956 19.3316 73.4719 20.0171 74.7409 21.1946C75.8669 22.2396 76.3982 23.7028 76.1448 25.2385C75.9753 26.2662 75.4447 27.0798 74.3095 27.0499C73.9721 27.0411 73.6485 26.9558 73.3279 26.8564C72.8727 26.7153 72.4348 26.5012 72.035 26.2431L72.8803 26.3925C73.1348 25.8491 72.6254 25.3208 72.6746 24.7411C72.7448 23.916 73.2649 23.3514 73.6692 22.6784C73.0789 22.6401 72.7927 22.6037 72.4142 22.1259L71.8993 22.624L72.1763 22.8594L71.9085 22.9803L72.097 23.1039L71.7799 24.0818C71.7996 23.6117 71.6313 22.5903 71.9903 22.2794L71.6131 22.0324L71.6248 21.9323L72.037 21.8789C71.6434 21.455 71.51 21.319 71.665 20.719L71.5765 20.6072C70.7983 20.7487 70.0293 21.2515 69.643 21.9546C69.9573 22.3274 69.8066 22.8664 69.7161 23.3111C69.4887 24.4287 69.1394 25.8665 68.2808 26.6675L68.325 26.7234L69.308 26.1277L69.3523 26.1836L68.567 27.2592L68.6112 27.3151L69.4824 26.8078L69.5267 26.8637C69.1065 27.6661 69.0674 28.689 69.3671 29.5348L69.367 29.5347ZM69.7813 25.1172L69.945 23.7154C70.1494 24.1543 70.4212 24.9362 69.7813 25.1172Z" fill="#373737"/>
<path d="M26.685 29.5347L25.9088 28.1029C25.6823 29.3483 24.7337 30.4728 23.7328 31.1989L23.6769 31.1546C24.0098 30.5739 23.9976 29.9968 23.9229 29.3497C23.3157 30.2558 22.5528 31.3936 21.318 31.3793L21.8578 30.3521C19.9054 31.6129 18.1872 30.8664 16.5873 29.5464L16.6315 29.4905L18.59 29.3126C16.3073 29.0451 15.0233 28.0014 13.7073 26.178L13.7516 26.1221C14.5502 26.6998 15.8721 27.5905 16.8984 27.4294C16.095 27.1069 14.8678 26.038 14.5592 25.2158C15.1046 25.254 15.8443 25.2872 16.2264 24.8076C16.7155 24.1939 16.7539 23.0382 17.0856 22.306C17.774 20.7861 18.9068 19.5904 20.2575 18.6344C23.9104 16.049 28.7323 15.6165 32.8589 14.15C34.9977 13.3899 37.143 12.4123 38.6296 10.6252C39.4251 9.66896 39.6348 8.52399 40.0885 7.41652C38.7372 14.4313 31.1242 16.537 25.8307 18.6798C24.2564 19.3316 22.58 20.0171 21.3111 21.1946C20.185 22.2396 19.6538 23.7028 19.9072 25.2385C20.0767 26.2662 20.6073 27.0798 21.7425 27.0499C22.0799 27.0411 22.4034 26.9558 22.724 26.8564C23.1793 26.7153 23.6172 26.5012 24.017 26.2431L23.1717 26.3925C22.9172 25.8491 23.4266 25.3208 23.3774 24.7411C23.3072 23.916 22.787 23.3514 22.3828 22.6784C22.9731 22.6401 23.2593 22.6037 23.6378 22.1259L24.1527 22.624L23.8757 22.8594L24.1435 22.9803L23.955 23.1039L24.2721 24.0818C24.2524 23.6117 24.4207 22.5903 24.0617 22.2794L24.4388 22.0324L24.4272 21.9323L24.0149 21.8789C24.4086 21.455 24.542 21.319 24.387 20.719L24.4754 20.6072C25.2537 20.7487 26.0227 21.2515 26.409 21.9546C26.0947 22.3274 26.2454 22.8664 26.3359 23.3111C26.5633 24.4287 26.9125 25.8665 27.7712 26.6675L27.727 26.7234L26.7439 26.1277L26.6997 26.1836L27.485 27.2592L27.4407 27.3151L26.5695 26.8078L26.5253 26.8637C26.9455 27.6661 26.9846 28.689 26.6849 29.5348L26.685 29.5347ZM26.2707 25.1172L26.107 23.7154C25.9026 24.1543 25.6308 24.9362 26.2707 25.1172Z" fill="#373737"/>
<path d="M61.0824 85.5987L61.1135 83.9703C60.3022 84.9419 58.9223 85.4523 57.6936 85.5902L57.6667 85.5242C58.2428 85.1832 58.5168 84.6751 58.771 84.0754C57.7959 84.5641 56.571 85.1776 55.5039 84.5561L56.4801 83.9287C54.1599 84.0625 53.0334 82.5656 52.2928 80.6283L52.3588 80.6014L54.1502 81.4127C52.2965 80.054 51.6943 78.5128 51.449 76.2776L51.5151 76.2508C51.9248 77.1472 52.6354 78.5741 53.6076 78.9401C53.0679 78.2633 52.5276 76.7282 52.6647 75.8608C53.1203 76.163 53.7473 76.5567 54.3163 76.328C55.0444 76.0353 55.6479 75.049 56.2975 74.5757C57.6461 73.593 59.2213 73.1117 60.8677 72.9463C65.3206 72.4991 69.7285 74.5012 74.0415 75.261C76.277 75.6548 78.6254 75.8625 80.8 75.0412C81.9636 74.6018 82.7108 73.7092 83.6517 72.9696C79.0163 78.4051 71.3551 76.4818 65.6935 75.7348C64.0025 75.5252 62.2061 75.2947 60.5215 75.6931C59.0265 76.0467 57.8427 77.0575 57.3056 78.5183C56.9462 79.496 57.0064 80.4654 58.0086 80.9994C58.3065 81.1581 58.63 81.2435 58.9579 81.3152C59.4235 81.417 59.91 81.4467 60.3852 81.4193L59.5761 81.1324C59.6228 80.5342 60.3265 80.3259 60.5696 79.7973C60.9155 79.045 60.7415 78.2973 60.7219 77.5125C61.2543 77.7703 61.5211 77.8798 62.0861 77.6509L62.2883 78.3381L61.9312 78.4062L62.1046 78.6436L61.8796 78.658L61.6731 79.6652C61.8878 79.2464 62.538 78.441 62.3791 77.9935L62.829 77.9646L62.8683 77.8718L62.536 77.622C63.0876 77.4474 63.2706 77.3949 63.4318 76.7965L63.5639 76.7429C64.171 77.2498 64.592 78.0665 64.5812 78.8687C64.124 79.038 63.9891 79.5812 63.8485 80.0127C63.4951 81.097 63.0897 82.52 63.4416 83.6403L63.3755 83.6671L62.8142 82.664L62.7482 82.6909L62.9007 84.0138L62.8347 84.0406L62.3271 83.1697L62.261 83.1965C62.2307 84.1018 61.7602 85.0108 61.0823 85.5987L61.0824 85.5987ZM62.9009 81.5516L63.45 80.2514C63.0557 80.5324 62.4336 81.0785 62.9009 81.5516Z" fill="#373737"/>
<path d="M35.4656 85.5987L35.4345 83.9703C36.2458 84.9419 37.6257 85.4523 38.8545 85.5902L38.8813 85.5242C38.3052 85.1832 38.0312 84.6751 37.777 84.0754C38.7522 84.5641 39.977 85.1776 41.0441 84.5561L40.0679 83.9287C42.3882 84.0625 43.5146 82.5656 44.2552 80.6283L44.1892 80.6014L42.3978 81.4127C44.2515 80.054 44.8537 78.5128 45.099 76.2776L45.033 76.2508C44.6232 77.1472 43.9127 78.5741 42.9404 78.9401C43.4801 78.2633 44.0205 76.7282 43.8834 75.8608C43.4278 76.163 42.8007 76.5567 42.2317 76.328C41.5036 76.0353 40.9001 75.049 40.2505 74.5757C38.9019 73.593 37.3267 73.1117 35.6803 72.9463C31.2274 72.4991 26.8195 74.5012 22.5065 75.261C20.271 75.6548 17.9226 75.8625 15.748 75.0412C14.5844 74.6018 13.8372 73.7092 12.8963 72.9696C17.5317 78.4051 25.1929 76.4818 30.8545 75.7348C32.5455 75.5252 34.3419 75.2947 36.0265 75.6931C37.5215 76.0467 38.7053 77.0575 39.2424 78.5183C39.6018 79.496 39.5416 80.4654 38.5394 80.9994C38.2415 81.1581 37.918 81.2435 37.5901 81.3152C37.1245 81.417 36.638 81.4467 36.1629 81.4193L36.9719 81.1324C36.9252 80.5342 36.2215 80.3259 35.9784 79.7973C35.6325 79.045 35.8065 78.2973 35.8262 77.5125C35.2937 77.7703 35.0269 77.8798 34.4619 77.6509L34.2597 78.3381L34.6168 78.4062L34.4434 78.6436L34.6684 78.658L34.8749 79.6652C34.6602 79.2464 34.01 78.441 34.1689 77.9935L33.719 77.9646L33.6798 77.8718L34.012 77.622C33.4605 77.4474 33.2774 77.3949 33.1162 76.7965L32.9841 76.7429C32.377 77.2498 31.956 78.0665 31.9668 78.8687C32.4241 79.038 32.5589 79.5812 32.6995 80.0127C33.0529 81.097 33.4583 82.52 33.1064 83.6403L33.1725 83.6671L33.7338 82.664L33.7998 82.6909L33.6473 84.0138L33.7133 84.0406L34.221 83.1697L34.287 83.1965C34.3173 84.1018 34.7878 85.0108 35.4657 85.5987L35.4656 85.5987ZM33.6471 81.5516L33.098 80.2514C33.4923 80.5324 34.1144 81.0785 33.6471 81.5516Z" fill="#373737"/>
</g>
<defs>
<filter id="filter0_d_5_24" x="0" y="0" width="99.0001" height="99" filterUnits="userSpaceOnUse" color-interpolation-filters="sRGB">
<feFlood flood-opacity="0" result="BackgroundImageFix"/>
<feColorMatrix in="SourceAlpha" type="matrix" values="0 0 0 0 0 0 0 0 0 0 0 0 0 0 0 0 0 0 127 0" result="hardAlpha"/>
<feOffset dx="2" dy="2"/>
<feGaussianBlur stdDeviation="0.5"/>
<feComposite in2="hardAlpha" operator="out"/>
<feColorMatrix type="matrix" values="0 0 0 0 0 0 0 0 0 0 0 0 0 0 0 0 0 0 0.25 0"/>
<feBlend mode="normal" in2="BackgroundImageFix" result="effect1_dropShadow_5_24"/>
<feBlend mode="normal" in="SourceGraphic" in2="effect1_dropShadow_5_24" result="shape"/>
</filter>
</defs>
</svg>
