<?xml version="1.0" encoding="UTF-8" standalone="no"?>
<!-- Created with Inkscape (http://www.inkscape.org/) -->

<svg
   version="1.1"
   id="svg824"
   width="128mm"
   height="128mm"
   viewBox="0 0 483.77955 483.77955"
   sodipodi:docname="logo2.svg"
   inkscape:version="1.1 (c68e22c387, 2021-05-23)"
   xmlns:inkscape="http://www.inkscape.org/namespaces/inkscape"
   xmlns:sodipodi="http://sodipodi.sourceforge.net/DTD/sodipodi-0.dtd"
   xmlns="http://www.w3.org/2000/svg"
   xmlns:svg="http://www.w3.org/2000/svg">
  <defs
     id="defs828" />
  <sodipodi:namedview
     id="namedview826"
     pagecolor="#ffffff"
     bordercolor="#666666"
     borderopacity="1.0"
     inkscape:pageshadow="2"
     inkscape:pageopacity="0.0"
     inkscape:pagecheckerboard="0"
     showgrid="false"
     inkscape:zoom="1.1327851"
     inkscape:cx="255.5648"
     inkscape:cy="191.12186"
     inkscape:window-width="1920"
     inkscape:window-height="1009"
     inkscape:window-x="-8"
     inkscape:window-y="-8"
     inkscape:window-maximized="1"
     inkscape:current-layer="g830"
     units="mm"
     showborder="false"
     inkscape:showpageshadow="false"
     inkscape:document-units="mm" />
  <g
     inkscape:groupmode="layer"
     inkscape:label="Image"
     id="g830">
    <path
       style="fill:#3e4750;fill-opacity:1;stroke-width:1.34331"
       d="M 241.65659,0.0689568 240.44526,0.137953 205.78649,17.583471 171.1277,35.02898 85.563849,77.781931 0,120.53483 v 120.76116 120.76119 l 1.805145,1.26963 1.805145,1.26964 31.048485,15.54835 31.048489,15.54835 85.924886,42.89753 85.92488,42.89752 2.16723,1.14567 2.16724,1.14566 96.75469,-48.34016 96.75467,-48.34017 24.18253,-12.05562 24.18251,-12.05564 0.007,-121.47266 0.007,-121.47264 -3.24926,-1.46936 -3.24926,-1.46936 L 360.07487,58.551967 242.86872,0 241.65739,0.068898 Z m 4.61948,5.9497092 4.59845,2.103262 115.0002,57.4783 115.00019,57.478292 -0.35324,118.70519 -0.35322,118.70517 -61.37491,30.7106 -61.37493,30.71058 -57.04257,28.53277 -57.04255,28.53278 -1.44413,-0.0191 -1.4441,-0.0191 L 176.90418,447.09208 113.36307,415.24674 58.840477,388.04402 4.317887,360.84132 4.686147,241.52116 5.054405,122.201 24.549972,112.44047 44.045523,102.67997 142.86155,53.297724 241.67763,3.9154133 Z m -13.96605,10.278705 -1.97358,0.05357 -106.54727,53.330649 -106.547275,53.33064 0.420856,1.90747 0.420858,1.90748 52.69414,26.45539 52.694141,26.45539 1.63983,0.0971 1.63984,0.097 53.04676,-79.46428 53.04676,-79.464278 0.71926,-2.379807 0.71925,-2.379816 -1.97357,0.05337 z m -4.69936,4.944616 h 0.30688 l -38.59969,57.790671 -38.5997,57.790682 -12.68169,19.05531 -12.68167,19.05529 h -1.26807 -1.26802 l -48.051281,-23.8904 -48.051284,-23.89039 -1.806218,-1.45811 -1.806218,-1.4581 14.081211,-7.01248 14.081198,-7.01249 86.646942,-43.314329 86.64693,-43.314336 1.37191,-1.170654 1.37191,-1.170664 z m 24.02648,-4.976893 -1.80514,-0.02123 v 1.681864 1.681855 l 53.30318,79.849857 53.30318,79.84985 2.28196,0.40179 2.28195,0.40178 53.44411,-26.64188 53.44411,-26.64188 -0.3624,-1.79825 L 467.1657,123.2306 360.30399,69.758454 253.4423,16.286313 l -1.80516,-0.02123 z m 9.52653,7.960819 5.27567,2.862593 96.03368,47.871305 96.03369,47.871319 1.70736,1.37322 1.70737,1.37323 -49.98457,24.99058 -49.98458,24.99056 -1.54478,0.29381 -1.54477,0.29381 -35.04934,-52.774 L 288.76408,70.598341 272.32605,45.98084 255.88802,21.36332 Z m -19.00672,-1.486366 -2.10629,-0.376717 -2.88481,4.125302 -2.8848,4.125301 -49.52725,74.305667 -49.52725,74.30564 -0.63026,2.85273 -0.63023,2.8527 h 107.75496 107.75497 l -0.034,-2.18667 -0.034,-2.18667 -52.57239,-78.72028 -52.57241,-78.720286 -2.10627,-0.376717 z m 50.97175,80.880523 51.3283,76.93676 -50.81655,0.32807 -50.81653,0.32804 -51.82736,-0.32804 -51.82738,-0.32807 51.3156,-76.93676 51.31562,-76.936754 z M 13.598083,132.44999 h -2.045158 v 107.45942 107.45943 l 1.805144,-0.0154 1.805146,-0.0153 6.020008,-9.04375 6.020006,-9.04377 47.05124,-70.52611 47.051241,-70.52612 v -1.4737 -1.4737 l -52.831231,-26.4004 -52.83124,-26.40054 z m 4.814391,5.6218 3.971318,2.0145 46.933757,23.49137 46.933751,23.49135 -0.24763,1.11726 -0.24764,1.11725 -50.071857,74.97169 -50.071864,74.97169 -0.585576,0.52065 -0.585577,0.52063 V 238.17273 136.05729 Z m 451.269576,-4.33574 -2.51065,0.0365 -51.94741,26.09784 -51.94745,26.09784 -0.41156,1.06833 -0.41158,1.06831 14.08995,21.26801 14.08993,21.26803 38.96287,58.36397 38.96287,58.36398 h 1.7419 1.74188 l 0.45254,-4.06097 0.45252,-4.06097 -0.37757,-102.7737 -0.37757,-102.77369 -2.51067,0.0365 z m -0.74046,3.71205 h 0.39599 v 102.04665 102.04666 l -21.49389,-32.38545 -21.49388,-32.38547 -29.58384,-44.30326 -29.58383,-44.30326 50.68172,-25.35793 50.68172,-25.35794 z m -226.07651,53.72971 h -101.1713 l -0.89347,1.25088 -0.89348,1.25088 49.77582,74.65795 49.77582,74.65797 h 2.45198 2.45199 l 15.50011,-23.11627 15.50011,-23.11628 33.58294,-50.29804 33.58293,-50.29805 0.75392,-2.49452 0.75392,-2.49452 z m -0.9406,3.74859 h 96.23928 l -0.4814,1.02904 -0.48137,1.02906 -47.65581,71.35438 -47.65582,71.35437 -1.31693,-2.09747 -1.31692,-2.09746 -46.16589,-69.34881 -46.16586,-69.34882 -0.61926,-0.93714 -0.61927,-0.93715 z m -113.21613,-2.49655 -2.34823,0.002 -16.83141,25.30045 -16.83141,25.30043 -36.277437,54.3057 -36.277427,54.30571 0.714326,1.61068 0.714326,1.61069 h 106.955202 106.9552 l 0.78258,-1.76459 0.78258,-1.76459 -21.51292,-32.28506 -21.51292,-32.28505 -31.48212,-47.1697 -31.48211,-47.16969 -2.34823,0.002 z m -0.0206,5.00264 0.88348,-0.008 50.74365,76.04589 50.74367,76.04634 v 0.8001 0.8001 H 128.406 25.753431 l 0.481378,-1.06397 0.481365,-1.06396 50.544055,-75.77499 50.544031,-75.77498 0.88348,-0.008 z m 226.48748,-4.98353 -2.24347,-0.0216 -53.05301,79.56028 -53.05302,79.56029 0.73579,1.65904 0.73577,1.65907 105.8268,-0.0192 105.82679,-0.0192 2.04166,-1.11823 2.04167,-1.11823 -10.70636,-16.08906 -10.70635,-16.08907 -42.60141,-63.97126 -42.60142,-63.97128 -2.24344,-0.0216 z m 0.0361,5.00536 0.76328,0.0289 50.91011,76.50473 50.91008,76.50474 -102.0461,0.32082 -102.04611,0.32082 -0.57718,-0.49941 -0.57719,-0.49943 12.00003,-17.98188 12,-17.98188 38.9499,-58.37313 38.94993,-58.37312 z M 131.41455,361.11365 H 24.549972 v 1.09653 1.09653 l 1.805136,1.24588 1.80515,1.24587 36.102883,18.05023 36.102889,18.05022 66.66203,33.33708 66.662,33.33708 h 2.29453 2.29449 v -53.7297 -53.72972 z m 1.85046,2.53705 100.7724,-0.038 0.69383,1.56443 0.69381,1.56444 -0.37811,49.05925 -0.37811,49.05922 -98.92193,-49.47583 -98.921914,-49.47584 -2.166177,-1.10984 -2.166176,-1.10986 100.772377,-0.038 z M 353.327,361.11365 H 247.42517 l -0.96273,0.83302 -0.96275,0.83301 v 52.31115 52.31115 l 2.13427,0.70864 2.13426,0.70864 56.71345,-28.35943 56.71344,-28.35944 48.0098,-23.93145 48.0098,-23.93147 0.008,-1.56191 0.008,-1.56191 H 353.3288 Z m -2.88823,2.49906 h 100.60671 l -0.60171,0.49031 -0.60172,0.49033 -25.99408,13.03339 -25.99408,13.03341 -62.09697,31.01808 -62.09697,31.01809 -11.91396,6.04144 -11.91395,6.04145 v -50.58325 -50.58325 z"
       id="path12461"
       sodipodi:nodetypes="cccccccccccccccccccccccccccccccccccccccccccccccccccccccccccccccccccccccccccccccccccccccccccccccccccccccccccccccccccccccccccccccccccccccccccccccccccccccccccccccccccccccccccccccccccccccccccccccccccccccccccccccccccccccccccccccccccccccccccccccccccccccccccccccccccccccccccccccccccccccccccccccccccccccccccccccccccccccccccccccccccccccccccccccccccccccc" />
    <path
       style="fill:#3e4750;stroke:none;stroke-width:0.282673"
       d="m 216.40488,198.44666 c -6.41951,5.07785 -9.63198,12.05877 -8.59027,20.09141 l -2.0044,-2.51143 h -0.28637 l 1.23785,6.69717 1.90278,3.62759 -4.57232,7.25525 3.14977,-0.5581 -6.29954,11.99907 3.43612,-0.2791 c -3.58646,6.1413 -3.84618,13.22158 -8.30395,18.97524 l 6.58589,-0.83714 c -0.82752,6.38041 0.64797,12.48765 4.29514,17.85904 h 0.28634 l 0.85903,-5.58097 h 0.28634 c 0.27805,5.93062 5.55447,14.58442 10.30834,18.1381 l 0.57267,-2.79047 c 5.58714,5.01532 11.79731,9.29006 16.91571,14.78951 2.20856,2.37329 4.76043,5.2408 5.70535,8.37142 l 2.67562,-3.90669 5.13727,-6.13791 15.38089,-13.11633 0.57268,2.79047 c 4.75188,-3.54417 10.0306,-12.21613 10.30836,-18.1381 h 0.28632 l 0.85905,5.58097 h 0.28632 c 3.64085,-5.36219 5.1218,-11.4842 4.29514,-17.85904 l 6.58587,1.1162 -3.37049,-5.58095 -4.93344,-13.67335 3.43615,0.2791 -6.29955,-11.99907 3.14977,0.5581 -4.57204,-7.25525 1.90248,-3.62759 1.23786,-6.69717 h -0.28636 l -2.00438,2.51143 c 0.96294,-7.42571 -1.84895,-16.15155 -8.87665,-20.09141 -1.21953,5.00138 -6.74536,8.96495 -10.59469,12.11346 -1.25416,1.02607 -2.93928,3.00173 -4.58146,3.34968 -1.07152,0.22687 -2.39585,-0.44982 -3.43612,-0.66944 -2.2349,-0.47241 -4.87212,-0.91611 -7.1586,-0.75065 -2.30618,0.16656 -4.60863,0.2997 -6.87219,0.81204 -1.052,0.23834 -2.35972,0.91248 -3.43611,0.52322 -1.66023,-0.60022 -3.24256,-2.39536 -4.58149,-3.49759 -4.38848,-3.61365 -7.5775,-7.23151 -10.59469,-11.88072 m -2.29074,7.53431 c 1.88358,3.92702 4.61097,7.89506 7.52765,11.16186 1.01109,1.13267 3.78118,2.88203 3.89255,4.46476 0.0748,1.06542 -1.24672,2.08728 -1.97205,2.70986 -2.34688,2.01389 -5.13297,3.65438 -8.01642,4.82442 1.04684,-1.49343 3.95753,-4.095 3.88654,-6.02072 -0.0412,-1.12484 -1.58607,-2.51587 -2.16421,-3.46688 -1.46061,-2.40204 -2.12095,-5.09431 -3.44042,-7.53427 -1.27392,3.21825 -1.99465,6.58356 -2.00436,10.0457 h -0.28637 c -1.14622,-4.88472 -1.8598,-12.47817 2.57709,-16.18473 m 56.40951,0 c 3.55984,4.87298 3.60219,10.59625 2.29075,16.18473 h -0.28633 l -2.00442,-10.32477 h -0.28632 c -0.41149,2.71487 -1.72751,5.4674 -3.15408,7.81334 -0.59016,0.97082 -2.1218,2.35625 -2.16419,3.50931 -0.0698,1.89079 2.85599,4.50798 3.88654,5.97829 -2.71197,-1.10026 -9.46332,-4.04089 -9.97158,-7.25523 -0.23539,-1.48703 2.44306,-3.22467 3.35994,-4.1857 3.3691,-3.53052 5.14274,-8.14596 8.32969,-11.71997 m -62.4227,12.5571 -0.28634,0.27905 0.28634,-0.27905 m 68.43593,0 -0.28638,0.27905 0.28638,-0.27905 m -48.39194,15.06858 c 5.23233,3.13482 6.14061,8.67418 9.44931,13.39426 l -9.44931,3.90669 0.85902,-2.23241 c -2.21887,1.05844 -4.49788,0.85053 -6.87221,0.55811 l 2.57706,-1.95337 v -0.27902 c -2.86598,-0.28795 -4.79937,-2.69533 -5.44051,-5.30188 l 5.15417,3.20483 7.73127,0.98086 c -0.81408,-5.2924 -5.10378,-7.02391 -10.02199,-6.4181 l 0.85901,1.39524 -4.58146,-1.9533 v -0.27909 l 7.44488,-1.67425 -2.00437,-2.2324 5.15415,1.67431 -0.85902,-2.79048 m 28.34795,0 -1.14541,2.79048 5.15416,-1.67431 -2.00434,2.2324 7.73119,1.67425 v 0.27909 l -4.86781,1.9533 0.85903,-1.39524 c -4.93023,-0.3792 -9.18216,0.95881 -10.022,6.4181 l 7.73127,-0.98086 5.15416,-2.92578 c -0.89511,2.51587 -2.55559,4.73319 -5.44051,5.02283 v 0.27902 l 2.57708,1.95337 c -2.37435,0.29242 -4.65335,0.50033 -6.87223,-0.55811 l 0.85904,2.23241 -9.73566,-3.90669 v -0.27903 c 5.02333,-3.52354 3.69441,-10.45394 10.02203,-13.11523 m -30.06601,8.09238 c 0.80976,1.63159 2.05365,1.63159 2.86343,0 h 0.28634 c -0.0468,3.87905 -4.5517,2.56219 -3.14977,0 m 28.63429,0 c 0.80975,1.63159 2.05364,1.63159 2.86339,0 h 0.28634 c 0.35652,3.65634 -4.39936,2.93695 -3.14973,0 m -44.95583,3.34859 -2.00439,8.37142 2.29075,-0.55816 -1.43173,7.25527 2.57708,-0.55811 -4.86781,11.44094 h -0.28633 c -0.0979,-4.62156 -0.55869,-9.09582 0.57267,-13.6733 l -4.58147,2.23236 c 2.47943,-4.35704 3.57668,-11.3857 7.73123,-14.51042 m 64.71345,0.27904 7.15859,14.23138 -4.58151,-2.23236 0.57268,13.6733 h -0.28634 l -4.86781,-11.44094 2.57709,0.55811 -1.43174,-7.25527 2.29075,0.55816 -1.43171,-8.09238 m -59.84563,2.23236 c 1.90934,2.58816 4.09039,4.91179 7.15859,6.17363 1.2453,0.51234 4.68084,0.32426 5.43249,1.24986 0.6858,0.84441 0.13196,2.50307 0.009,3.45936 l 2.29075,-2.51143 h 0.28633 l -0.85902,5.3019 c 2.29044,-2.42353 4.69516,-5.02341 6.01317,-8.09237 h 0.28635 c 0,4.72902 -3.08848,11.13395 -1.77819,15.62665 0.98188,3.36614 8.13045,4.70335 7.09332,8.35913 -0.40863,1.44073 -2.01703,1.61121 -3.31071,1.69327 -3.05727,0.19394 -6.52262,-1.23005 -8.47746,-3.6385 -2.35575,-2.90238 -0.0948,-7.1199 0.17354,-10.32054 l -4.2951,6.97615 h -0.28697 l 0.85904,-8.09237 -4.00883,3.06951 c 0.21989,-1.59166 1.93452,-4.66176 1.36358,-6.11391 -0.45874,-1.16753 -2.1728,-2.01558 -3.08164,-2.84069 -2.44709,-2.22095 -5.99513,-6.72758 -4.86781,-10.29965 m 54.69144,0 c -0.26916,3.31955 -1.40936,6.45295 -3.74909,8.9295 -1.18716,1.25656 -3.86248,2.62221 -4.48672,4.21084 -0.57095,1.45215 1.14369,4.52225 1.3636,6.11391 l -4.0088,-3.06951 0.85902,8.09237 h -0.28634 l -4.29514,-6.97615 c 0.26829,3.20064 2.52927,7.41816 0.17354,10.32054 -1.91646,2.36101 -5.4591,3.91642 -8.47745,3.65244 -1.29285,-0.11307 -2.89977,-0.2581 -3.31067,-1.70721 -1.02715,-3.62008 6.11798,-5.01502 7.09325,-8.35913 1.31059,-4.49378 -1.77819,-10.89654 -1.77819,-15.62665 h 0.28636 c 1.318,3.06896 3.72271,5.66884 6.0132,8.09237 l -0.85905,-5.3019 h 0.28634 l 2.29074,2.51143 -0.28633,-3.90666 c 6.43815,0 8.69536,-3.1047 13.17179,-6.97619 m -57.26856,15.9057 c 0.36366,4.49126 1.49041,8.35551 3.72245,12.27807 h 0.28637 l 4.2951,-4.74381 -3.14973,14.23143 c -4.94775,-3.92536 -8.66159,-16.09658 -5.15419,-21.76569 m 59.84562,0 c 1.38073,6.93879 0.7319,16.86843 -5.44051,21.76569 l -3.14976,-14.23143 4.2951,4.74381 h 0.28636 l 2.74175,-6.13903 1.26706,-6.13904 m -24.91183,4.46474 h -10.30831 c 1.73378,-3.30447 8.57593,-3.30168 10.30831,0 m -23.76643,5.86001 c 0.0353,4.17371 1.71345,7.54962 2.86342,11.44094 h 0.28635 l 1.71807,-5.58094 h 0.28633 c 0.052,6.0888 3.28349,12.32665 7.44491,16.74285 l 0.57267,-3.90666 h 0.28637 l 4.00882,13.11521 h -0.28637 c -1.19348,-1.86154 -2.72168,-3.43621 -4.26935,-5.01866 -6.51631,-6.66142 -19.87564,-16.00729 -12.91122,-26.79274 m 37.51093,0 c 0.56407,2.37608 1.59604,4.76193 1.38186,7.25523 -0.94152,10.97074 -13.36878,16.00951 -18.8488,24.55617 h -0.28635 l 4.00879,-13.11521 h 0.28635 l 0.57271,3.90666 c 4.16141,-4.4162 7.39305,-10.65405 7.44488,-16.74285 h 0.28634 l 1.71808,5.58094 h 0.28631 l 2.10348,-5.86 1.04635,-5.58094 m -12.31277,6.69715 c -0.0801,1.70636 -0.63853,3.08208 -2.00439,4.18571 l 0.28634,-1.95333 -4.86782,2.47347 -4.86785,-2.47347 0.28637,1.95333 c -1.36589,-1.10363 -1.92423,-2.47935 -2.00441,-4.18571 l 6.58589,-0.7872 z"
       id="path13531" />
    <path
       style="fill:#3e4750;fill-opacity:1;stroke-width:0.248444"
       d="m 242.95471,57.259313 c 7.4e-4,0.649058 0.10172,1.571408 0.22433,2.049663 0.12262,0.478254 0.29181,1.177002 0.37601,1.552775 0.0841,0.375769 0.25986,0.683219 0.3904,0.683219 0.3204,0 0.98866,-1.320339 1.50366,-2.970923 0.23271,-0.745813 0.55136,-1.398787 0.70815,-1.451045 0.60254,-0.200851 2.66455,5.118109 2.99769,7.732538 0.19736,1.548806 -0.0151,5.650246 -0.38521,7.434632 -0.10381,0.500491 -0.0437,0.68322 0.22464,0.68322 0.4918,0 3.27392,-3.309731 3.94173,-4.689271 l 0.53365,-1.102361 0.43335,0.535165 c 0.88803,1.096669 1.22467,5.804357 0.59351,8.299906 -0.2467,0.975369 0.22572,0.874663 1.42871,-0.304559 0.55423,-0.543287 1.11695,-0.920254 1.2505,-0.837724 0.25511,0.157669 0.0895,2.031441 -0.31522,3.566918 -0.1264,0.479519 -1.13408,2.154203 -2.2393,3.721526 -1.10521,1.567316 -1.89454,2.887988 -1.75404,2.934804 0.14047,0.04682 1.08852,-0.202406 2.10678,-0.553865 1.96062,-0.676709 3.49111,-0.839783 3.32945,-0.354733 -0.0521,0.156367 -1.31147,1.358208 -2.79854,2.670778 -2.94099,2.595901 -4.59434,4.740698 -5.24158,6.799665 -0.22496,0.715579 -0.46651,2.558789 -0.5368,4.096029 -0.12827,2.80525 0.0575,3.44099 0.6351,2.17332 0.1558,-0.34192 0.64297,-0.84044 1.08262,-1.1078 1.07675,-0.6548 1.44678,-0.31508 1.44678,1.32832 0,1.08033 0.085,1.3149 0.55192,1.52236 0.71397,0.31725 1.58178,3.00822 1.82172,5.6489 0.11983,1.31915 0.27615,1.92545 0.49633,1.92545 0.17676,0 2.76092,-2.51551 5.74258,-5.59 4.80883,-4.95855 6.04958,-6.06784 6.04409,-5.40365 -7.4e-4,0.10245 -0.34426,1.36022 -0.76313,2.79498 -0.54701,1.87364 -0.76856,3.1687 -0.78631,4.59623 -0.0241,1.93907 0.16864,3.10555 0.51305,3.10555 0.0939,0 0.99586,-0.62068 2.00423,-1.37926 1.95574,-1.47127 7.70283,-4.44396 9.96524,-5.15451 1.75932,-0.55255 4.22526,-0.95248 4.78242,-0.77566 0.81298,0.25803 0.43824,0.92919 -1.56129,2.79635 -1.33413,1.24581 -2.39587,2.52994 -3.20122,3.87177 -2.35772,3.92834 -2.89592,5.33886 -2.2009,5.76839 0.45485,0.28112 1.46957,0.15387 5.16231,-0.64732 4.26101,-0.92449 8.11199,-1.25044 12.67065,-1.07247 5.74178,0.22418 5.92971,0.54831 1.41405,2.43895 -3.69691,1.54783 -6.33152,2.87405 -8.06443,4.05952 -1.71965,1.17638 -6.26871,5.7654 -6.26871,6.32379 0,0.62832 0.82335,0.91276 2.65444,0.91701 0.93134,0.002 3.03493,0.11364 4.67466,0.24788 6.62676,0.54222 10.70936,1.94432 12.22949,4.20004 1.07856,1.60047 0.92088,1.71636 -2.13763,1.57138 -2.86354,-0.13573 -4.37825,0.0575 -8.55491,1.09159 -2.93698,0.72712 -4.39406,1.2843 -4.39406,1.6803 0,0.16174 1.14595,1.08711 2.54654,2.05633 7.22287,4.99836 13.61245,11.7315 19.45246,20.49841 4.25792,6.39196 5.86462,9.81895 7.37485,15.73027 0.87497,3.42482 1.11947,7.45332 0.45237,7.45332 -0.19785,0 -1.28079,-1.1804 -2.40657,-2.62309 -3.20131,-4.10258 -5.25474,-6.38356 -7.67157,-8.52175 -2.36164,-2.08938 -15.56585,-12.08468 -15.96435,-12.08468 -0.12878,0 -0.29687,1.14594 -0.37353,2.54656 -0.16157,2.95218 -0.59299,5.15636 -1.00846,5.15253 -0.15948,-0.002 -0.73435,-0.84899 -1.27748,-1.88338 -2.63674,-5.0217 -8.70156,-11.59198 -14.61178,-15.82961 -3.50532,-2.51334 -9.30343,-5.00874 -10.5375,-4.53518 -0.52223,0.2004 -0.2873,1.58994 0.70306,4.15799 0.41946,1.08774 0.71693,2.02345 0.66101,2.07934 -0.611,0.61104 -6.63638,-7.06379 -9.12727,-11.62587 -0.5782,-1.059 -1.13942,-1.92544 -1.24713,-1.92544 -0.31804,0 -0.77323,1.32383 -0.98057,2.85164 -0.16759,1.23497 -0.12996,1.48241 0.28415,1.86821 0.47052,0.43833 0.46995,0.45911 -0.0381,1.45495 -0.62554,1.22615 -0.6242,1.1921 -0.0525,1.34162 0.32509,0.085 0.62795,0.66436 1.01713,1.94565 1.18488,3.90096 3.20775,6.87901 6.35045,9.3491 1.21948,0.95848 2.01717,1.75068 1.89041,1.87744 -0.33661,0.3366 -1.92659,0.64462 -4.25515,0.82429 -2.42698,0.1873 -4.63549,-0.25542 -6.38299,-1.27951 -0.98906,-0.57965 -1.19642,-0.60748 -3.38073,-0.45395 -1.8624,0.13092 -2.58391,0.0782 -3.61366,-0.26378 -1.61187,-0.53537 -3.5225,-1.95706 -4.9265,-3.66577 -1.24611,-1.51656 -3.16239,-5.05232 -2.93637,-5.41797 0.0841,-0.13616 0.42561,-0.17912 0.75886,-0.0955 0.33323,0.0836 0.60586,0.093 0.60586,0.0206 0,-0.0723 -0.37486,-1.02035 -0.83304,-2.10673 -1.33273,-3.16003 -4.67766,-8.00186 -5.528,-8.00186 -0.19082,0 -0.34693,0.0898 -0.34693,0.19962 0,0.45723 -3.12198,5.43116 -4.8222,7.68271 -2.08546,2.76172 -4.77417,5.70939 -5.00098,5.48261 -0.0837,-0.0838 0.24751,-1.21966 0.73612,-2.52423 0.95285,-2.54401 1.09789,-3.57105 0.53482,-3.78713 -1.25385,-0.48113 -7.55368,2.31663 -10.9363,4.85685 -6.07735,4.56384 -11.77758,10.84446 -14.33996,15.80002 -0.45618,0.88225 -0.95993,1.6045 -1.11941,1.60501 -0.40892,0.002 -0.83082,-2.16761 -1.00433,-5.16306 -0.0814,-1.40542 -0.22508,-2.60297 -0.31927,-2.66119 -0.22851,-0.14123 -8.16228,5.20157 -11.43548,7.70096 -3.85285,2.94198 -7.39183,6.61932 -11.05612,11.48842 -1.97649,2.62631 -3.36783,4.25935 -3.59632,4.22105 -0.98051,-0.16443 -0.32645,-5.5545 1.28467,-10.58646 1.41849,-4.43044 3.96007,-9.1056 8.18758,-15.06077 5.59852,-7.88652 12.29196,-14.60168 18.66402,-18.7246 0.92234,-0.59678 1.677,-1.2217 1.677,-1.38865 0,-0.40171 -0.81163,-0.75272 -3.42496,-1.48121 -3.86497,-1.07739 -6.57632,-1.45806 -9.52125,-1.33673 -3.02602,0.12468 -3.14207,0.0476 -2.21617,-1.47091 1.58629,-2.60162 6.5413,-4.06586 15.04235,-4.4451 2.09667,-0.0936 3.94685,-0.25333 4.11147,-0.35508 0.59143,-0.36551 -0.0394,-1.47209 -2.05141,-3.59746 -3.11705,-3.29294 -5.9132,-5.04765 -11.87779,-7.45384 -2.63624,-1.06348 -3.38416,-1.55423 -2.98183,-1.95655 0.41072,-0.41073 7.24191,-0.64981 10.6836,-0.3739 1.70804,0.13691 4.61484,0.5766 6.45954,0.97706 5.9859,1.29941 6.30041,1.14071 4.56566,-2.30407 -1.56472,-3.10708 -2.7764,-4.79581 -4.81822,-6.71515 -2.00856,-1.88806 -2.3531,-2.51423 -1.52769,-2.77621 0.65197,-0.20692 3.84716,0.45219 5.84477,1.2057 2.59707,0.97963 7.28869,3.4854 9.17747,4.90169 0.92915,0.69671 1.75726,1.19886 1.84025,1.11586 0.3515,-0.3515 0.51332,-2.64278 0.30054,-4.25498 -0.12625,-0.9565 -0.5265,-2.71813 -0.88941,-3.91471 -0.36295,-1.19659 -0.5957,-2.23979 -0.51726,-2.31823 0.26464,-0.26465 1.04707,0.338 2.65807,2.04732 7.42222,7.87518 10.55164,10.76938 11.64466,10.76938 0.57754,0 0.21582,-5.80167 -0.49973,-8.0156 -0.43036,-1.33158 -0.47952,-1.74385 -0.23683,-1.98653 0.24266,-0.24268 0.51458,-0.18632 1.31017,0.27157 0.55218,0.31781 1.05767,0.5241 1.12331,0.45846 0.0656,-0.0657 -0.17166,-0.69367 -0.52736,-1.3956 -0.6329,-1.24897 -0.64888,-1.75589 -0.0551,-1.7531 0.90996,0.003 2.2353,0.62405 3.25637,1.52283 0.63823,0.5618 1.21234,0.96954 1.27577,0.90608 0.22771,-0.2277 -1.10738,-4.90629 -2.10898,-7.390553 -1.29292,-3.206838 -2.04986,-4.699741 -2.88769,-5.695454 -0.81122,-0.964071 -3.25471,-2.719921 -5.01592,-3.604323 -2.16371,-1.086528 -1.74586,-1.329247 1.55279,-0.901975 0.9565,0.123899 1.8225,0.14305 1.92446,0.04257 0.10182,-0.100546 -0.0504,-0.848357 -0.33847,-1.661936 -0.64334,-1.816838 -0.93538,-5.413919 -0.46325,-5.705717 0.20842,-0.128812 0.57058,0.09572 1.04564,0.64826 l 0.72677,0.845338 -0.16204,-0.739198 c -0.51569,-2.352788 -0.65125,-3.617157 -0.50557,-4.715465 0.19236,-1.450014 1.09011,-3.667058 1.43797,-3.551112 0.13334,0.0444 0.4397,0.600505 0.6808,1.23569 0.54086,1.424835 1.45073,2.925428 1.77378,2.925428 0.15271,0 0.16805,-0.797257 0.0418,-2.173884 -0.48973,-5.341996 -0.13883,-6.893459 2.07261,-9.163865 1.37401,-1.410642 6.49906,-5.305994 6.98265,-5.307212 0.20476,-4.97e-4 0.31101,0.401183 0.31195,1.179325 z"
       id="path38463"
       sodipodi:nodetypes="cssssssssscssssssssssssssssssscsssssssssssssscsssssssssssssssssscsssscssssssssssssssssssssscssssscssssssssssssssssssssssssssssscssssssscsscsssssssscc" />
    <path
       style="fill:#3e4750;fill-opacity:1;stroke-width:0.243297"
       d="m 408.66081,335.47454 c -0.52986,-0.35113 -1.33692,-0.76853 -1.79348,-0.9277 -0.45656,-0.15912 -1.11821,-0.39973 -1.47035,-0.53468 -0.35208,-0.13502 -0.6981,-0.15823 -0.76882,-0.0523 -0.1736,0.26134 0.54128,1.5219 1.60857,2.83639 0.48227,0.59398 0.84223,1.20771 0.79988,1.36392 -0.16264,0.60032 -5.61866,-0.5999 -7.93178,-1.74485 -1.3703,-0.67829 -4.6007,-3.07405 -5.85566,-4.34288 -0.352,-0.35585 -0.53364,-0.40584 -0.67904,-0.18696 -0.26648,0.40116 0.92568,4.46399 1.68911,5.75625 l 0.61002,1.03266 -0.67135,0.0634 c -1.37576,0.1301 -5.39824,-2.14627 -7.09185,-4.01338 -0.66192,-0.72978 -0.83576,-0.28985 -0.52573,1.33043 0.14257,0.74653 0.14543,1.40975 0.006,1.47395 -0.26684,0.12266 -1.70552,-1.02776 -2.73871,-2.18994 -0.32264,-0.36295 -1.14263,-2.09237 -1.82221,-3.84319 -0.67957,-1.7508 -1.32912,-3.1103 -1.44345,-3.02108 -0.11429,0.0893 -0.42474,0.99759 -0.6898,2.01863 -0.51045,1.96599 -1.20676,3.30275 -1.51479,2.90805 -0.0992,-0.12723 -0.39728,-1.80572 -0.66213,-3.72999 -0.52385,-3.8056 -1.37744,-6.31644 -2.7062,-7.9601 -0.46179,-0.57127 -1.8344,-1.76708 -3.05024,-2.65739 -2.21872,-1.62474 -2.83796,-1.8177 -2.11692,-0.65964 0.19449,0.31238 0.33711,0.97989 0.31698,1.48339 -0.0494,1.23311 -0.52696,1.35086 -1.86746,0.46039 -0.88124,-0.58543 -1.11862,-0.6432 -1.54086,-0.37475 -0.64566,0.4105 -3.31093,-0.33983 -5.59494,-1.57502 -1.14095,-0.61706 -1.72023,-0.81812 -1.83954,-0.63851 -0.0959,0.1442 0.55584,3.61516 1.44799,7.71331 1.43888,6.60946 1.67139,8.22265 1.1326,7.85825 -0.0833,-0.056 -0.92299,-1.01788 -1.86634,-2.13699 -1.2319,-1.46148 -2.16823,-2.34396 -3.32306,-3.132 -1.56864,-1.07038 -2.62457,-1.54526 -2.81121,-1.26433 -0.0507,0.0766 -0.0334,1.14864 0.0387,2.38225 0.14033,2.39252 -0.54921,8.69123 -1.19538,10.92172 -0.50261,1.73449 -1.51264,3.96265 -1.95875,4.32132 -0.65103,0.52332 -0.99544,-0.146 -1.43497,-2.78881 -0.29322,-1.76335 -0.76541,-3.32521 -1.42355,-4.70925 -1.92674,-4.05185 -2.78565,-5.25518 -3.51264,-4.92103 -0.47578,0.21869 -0.92185,1.11536 -2.26932,4.56167 -1.55481,3.97664 -3.37569,7.29451 -5.99109,10.91655 -3.2942,4.56209 -3.66044,4.53975 -2.75569,-0.16829 0.74071,-3.8543 1.08655,-6.72199 1.05858,-8.77788 -0.0272,-2.04019 -1.30596,-8.23751 -1.76141,-8.54011 -0.5125,-0.34048 -1.19068,0.17708 -2.18638,1.66832 -0.5063,0.75861 -1.73724,2.41401 -2.73526,3.67879 -4.03318,5.11161 -7.38912,7.68202 -10.05282,7.69967 -1.88995,0.0127 -1.89904,-0.17896 -0.12347,-2.59516 1.66239,-2.26222 2.32557,-3.60247 3.7453,-7.56971 0.99836,-2.7897 1.33343,-4.28016 1.01039,-4.49475 -0.13192,-0.0877 -1.5077,0.34567 -3.05722,0.96293 -7.99105,3.1832 -16.94563,4.74667 -27.26131,4.75977 -7.5212,0.0101 -11.1872,-0.53687 -16.82742,-2.50819 -3.26777,-1.14211 -6.68628,-3.12563 -6.32479,-3.66977 0.10721,-0.16139 1.65687,-0.40512 3.4437,-0.54166 5.0812,-0.38819 8.05449,-0.82718 11.10822,-1.63997 2.98401,-0.79419 18.2922,-6.14864 18.50814,-6.4737 0.0698,-0.10497 -0.77389,-0.86311 -1.87481,-1.68459 -2.32056,-1.73151 -3.88472,-3.27782 -3.65645,-3.61462 0.0881,-0.12901 1.09042,-0.13891 2.22849,-0.0216 5.52496,0.57033 14.17071,-0.81643 20.82993,-3.34113 3.94959,-1.49738 9.12694,-4.87469 9.40937,-6.13792 0.11954,-0.53458 -1.14124,-1.0959 -3.77263,-1.67964 -1.11455,-0.24725 -2.03903,-0.51164 -2.05431,-0.58757 -0.16733,-0.82949 9.35803,-1.58557 14.42904,-1.14531 1.17714,0.10227 2.188,0.114 2.24637,0.0258 0.17234,-0.25943 -0.66085,-1.34806 -1.79473,-2.34506 -0.91656,-0.80591 -1.13879,-0.90929 -1.67787,-0.78055 -0.6125,0.14631 -0.62909,0.1348 -1.16614,-0.8195 -0.66121,-1.17465 -0.63416,-1.15511 -1.06592,-0.76978 -0.24548,0.2191 -0.88218,0.15219 -2.13824,-0.22472 -3.82402,-1.14732 -7.34937,-1.111 -11.06719,0.11381 -1.44264,0.47535 -2.52107,0.69674 -2.55581,0.52449 -0.0922,-0.45694 0.51815,-1.92082 1.63339,-3.91756 1.16234,-2.08118 2.72019,-3.64276 4.5025,-4.51327 1.00874,-0.49267 1.14379,-0.64675 2.20221,-2.51167 0.9024,-1.5901 1.33637,-2.15007 2.1733,-2.80473 1.31014,-1.02469 3.50514,-1.81279 5.65972,-2.03215 1.91229,-0.1947 5.83479,0.15823 6.01056,0.54069 0.0656,0.14238 -0.0846,0.44422 -0.33329,0.67075 -0.24877,0.22651 -0.40416,0.44381 -0.34511,0.48305 0.0589,0.0392 1.03542,0.24711 2.16985,0.46208 3.29982,0.6252 9.0618,0.52048 9.52259,-0.17317 0.1034,-0.15565 0.11477,-0.33164 0.0251,-0.39116 -0.37297,-0.24777 -2.73847,-5.48961 -3.65377,-8.09652 -1.12265,-3.19761 -2.07014,-6.98806 -1.76224,-7.05019 0.11371,-0.0229 0.86076,0.8628 1.66014,1.96827 1.5588,2.15578 2.31794,2.83059 2.79934,2.48842 1.07188,-0.76207 2.20348,-7.41684 1.96436,-11.55253 -0.42959,-7.43031 -2.46381,-15.48332 -5.11756,-20.25875 -0.47246,-0.85014 -0.78862,-1.65243 -0.70262,-1.78278 0.21995,-0.33466 2.2183,0.49686 4.75571,1.97849 1.1905,0.69517 2.24523,1.2269 2.34374,1.1816 0.23901,-0.10981 0.18,-9.47656 -0.0852,-13.50084 -0.31202,-4.73695 -1.39389,-9.61637 -3.38003,-15.24376 -1.07126,-3.03534 -1.64939,-5.05517 -1.49435,-5.22078 0.66545,-0.7107 4.70768,2.74355 7.93924,6.78444 2.84524,3.55779 5.28153,8.16429 7.84837,14.83964 3.39931,8.84022 5.24986,17.93881 5.16002,25.37061 -0.0135,1.07575 0.0878,2.02995 0.22404,2.12041 0.32767,0.21766 1.05376,-0.25421 3.06412,-1.99112 2.97315,-2.56884 4.75289,-4.57418 6.24969,-7.04213 1.53803,-2.53587 1.66378,-2.58875 2.40071,-1.01064 1.26256,2.70366 -0.22805,7.53889 -4.52522,14.67868 -1.05978,1.76098 -1.93205,3.35673 -1.93827,3.54612 -0.0224,0.68049 1.22213,0.76556 4.04607,0.27608 4.37509,-0.75824 7.32156,-2.08822 12.51633,-5.64965 2.29602,-1.5741 3.10161,-1.91827 3.21175,-1.37209 0.11245,0.55761 -3.39415,6.25934 -5.48421,8.91722 -1.03719,1.31906 -2.97099,3.45185 -4.29722,4.73959 -4.30354,4.17858 -4.34453,4.5211 -0.5946,4.97272 3.38233,0.40728 5.41643,0.33355 8.08841,-0.29144 2.62849,-0.61528 3.32593,-0.55703 3.09236,0.25839 -0.18449,0.6439 -2.45354,2.89307 -4.15063,4.11421 -2.20637,1.58756 -6.7926,4.05671 -8.97134,4.82994 -1.07179,0.38037 -1.93011,0.78377 -1.90738,0.89643 0.0963,0.47719 1.87753,1.85077 3.3079,2.55081 0.84865,0.41531 2.50248,1.04344 3.67518,1.39581 1.17275,0.35233 2.14979,0.72777 2.17126,0.83426 0.0725,0.35928 -0.84307,0.67093 -3.11033,1.05879 -10.44568,1.78692 -14.50222,2.77128 -15.09452,3.66286 -0.31294,0.47109 4.61546,3.31982 6.80912,3.93583 1.31934,0.3705 1.68229,0.55379 1.74875,0.88328 0.0663,0.32941 -0.12684,0.52072 -0.9315,0.92155 -0.55844,0.27817 -1.00061,0.57871 -0.98265,0.66783 0.0181,0.0891 0.65884,0.23586 1.42416,0.32609 1.36173,0.16051 1.78389,0.42217 1.45985,0.90501 -0.49552,0.74063 -1.7203,1.48518 -3.00671,1.83102 -0.80412,0.21615 -1.4478,0.46354 -1.43041,0.54967 0.0623,0.30912 4.60213,1.75531 7.17126,2.28444 3.31642,0.68311 4.94434,0.87461 6.21057,0.73075 1.22596,-0.13928 3.98226,-1.18097 5.65801,-2.13837 2.05875,-1.17616 2.03031,-0.70381 -0.10541,1.7554 -0.61936,0.71308 -1.10425,1.40907 -1.07757,1.54668 0.0268,0.13754 0.71934,0.41861 1.53905,0.62447 1.83061,0.45974 4.923,2.17069 4.90517,2.71392 -0.009,0.23978 -0.38725,0.41357 -1.09538,0.50165 l -1.08336,0.13479 0.69077,0.26836 c 2.19861,0.85425 3.3034,1.42881 4.12036,2.14279 1.07853,0.94264 2.4005,2.87629 2.11745,3.09722 -0.10851,0.0848 -0.72811,0.0332 -1.37688,-0.11428 -1.45532,-0.33092 -3.17238,-0.40184 -3.34744,-0.13836 -0.0827,0.12454 0.55927,0.56908 1.75059,1.21207 4.62283,2.49523 5.69822,3.62216 6.35186,6.6563 0.4061,1.88516 0.80642,8.17645 0.5454,8.57157 -0.11055,0.1673 -0.49581,0.036 -1.13102,-0.38459 z"
       id="path38463-6"
       sodipodi:nodetypes="cssssssssscssssssssssssssssssscsssssssssssssscsssssssssssssssssscsssscssssssssssssssssssssscssssscssssssssssssssssssssssssssssscssssssscsscsssssssscc" />
    <path
       style="fill:#3e4750;fill-opacity:1;stroke-width:0.243297"
       d="m 74.634717,335.0538 c 0.52986,-0.35113 1.33692,-0.76853 1.79348,-0.9277 0.45656,-0.15912 1.11821,-0.39973 1.47035,-0.53468 0.35208,-0.13502 0.6981,-0.15823 0.76882,-0.0523 0.1736,0.26134 -0.54128,1.5219 -1.60857,2.83639 -0.48227,0.59398 -0.84223,1.20771 -0.79988,1.36392 0.16264,0.60032 5.61866,-0.5999 7.93178,-1.74485 1.3703,-0.67829 4.600703,-3.07405 5.855663,-4.34288 0.352,-0.35585 0.53364,-0.40584 0.67904,-0.18696 0.26648,0.40116 -0.92568,4.46399 -1.68911,5.75625 l -0.61002,1.03266 0.67135,0.0634 c 1.37576,0.1301 5.39824,-2.14627 7.09185,-4.01338 0.66192,-0.72978 0.83576,-0.28985 0.52573,1.33043 -0.14257,0.74653 -0.14543,1.40975 -0.006,1.47395 0.26684,0.12266 1.70552,-1.02776 2.73871,-2.18994 0.32264,-0.36295 1.14263,-2.09237 1.82221,-3.84319 0.67957,-1.7508 1.32912,-3.1103 1.44345,-3.02108 0.11429,0.0893 0.42474,0.99759 0.6898,2.01863 0.51045,1.96599 1.20676,3.30275 1.51479,2.90805 0.0992,-0.12723 0.39728,-1.80572 0.66213,-3.72999 0.52385,-3.8056 1.37744,-6.31644 2.7062,-7.9601 0.46179,-0.57127 1.8344,-1.76708 3.05024,-2.65739 2.21872,-1.62474 2.83796,-1.8177 2.11692,-0.65964 -0.19449,0.31238 -0.33711,0.97989 -0.31698,1.48339 0.0494,1.23311 0.52696,1.35086 1.86746,0.46039 0.88124,-0.58543 1.11862,-0.6432 1.54086,-0.37475 0.64566,0.4105 3.31093,-0.33983 5.59494,-1.57502 1.14095,-0.61706 1.72023,-0.81812 1.83954,-0.63851 0.0959,0.1442 -0.55584,3.61516 -1.44799,7.71331 -1.43888,6.60946 -1.67139,8.22265 -1.1326,7.85825 0.0833,-0.056 0.92299,-1.01788 1.86634,-2.13699 1.2319,-1.46148 2.16823,-2.34396 3.32306,-3.132 1.56864,-1.07038 2.62457,-1.54526 2.81121,-1.26433 0.0507,0.0766 0.0334,1.14864 -0.0387,2.38225 -0.14033,2.39252 0.54921,8.69123 1.19538,10.92172 0.50261,1.73449 1.51264,3.96265 1.95875,4.32132 0.65103,0.52332 0.99544,-0.146 1.43497,-2.78881 0.29322,-1.76335 0.76541,-3.32521 1.42355,-4.70925 1.92674,-4.05185 2.78565,-5.25518 3.51264,-4.92103 0.47578,0.21869 0.92185,1.11536 2.26932,4.56167 1.55481,3.97664 3.37569,7.29451 5.99109,10.91655 3.2942,4.56209 3.66044,4.53975 2.75569,-0.16829 -0.74071,-3.8543 -1.08655,-6.72199 -1.05858,-8.77788 0.0272,-2.04019 1.30596,-8.23751 1.76141,-8.54011 0.5125,-0.34048 1.19068,0.17708 2.18638,1.66832 0.5063,0.75861 1.73724,2.41401 2.73526,3.67879 4.03318,5.11161 7.38912,7.68202 10.05282,7.69967 1.88995,0.0127 1.89904,-0.17896 0.12347,-2.59516 -1.66239,-2.26222 -2.32557,-3.60247 -3.7453,-7.56971 -0.99836,-2.7897 -1.33343,-4.28016 -1.01039,-4.49475 0.13192,-0.0877 1.5077,0.34567 3.05722,0.96293 7.99105,3.1832 16.94563,4.74667 27.26131,4.75977 7.5212,0.0101 11.1872,-0.53687 16.82742,-2.50819 3.26777,-1.14211 6.68628,-3.12563 6.32479,-3.66977 -0.10721,-0.16139 -1.65687,-0.40512 -3.4437,-0.54166 -5.0812,-0.38819 -8.05449,-0.82718 -11.10822,-1.63997 -2.98401,-0.79419 -18.2922,-6.14864 -18.50814,-6.4737 -0.0698,-0.10497 0.77389,-0.86311 1.87481,-1.68459 2.32056,-1.73151 3.88472,-3.27782 3.65645,-3.61462 -0.0881,-0.12901 -1.09042,-0.13891 -2.22849,-0.0216 -5.52496,0.57033 -14.17071,-0.81643 -20.82993,-3.34113 -3.94959,-1.49738 -9.12694,-4.87469 -9.40937,-6.13792 -0.11954,-0.53458 1.14124,-1.0959 3.77263,-1.67964 1.11455,-0.24725 2.03903,-0.51164 2.05431,-0.58757 0.16733,-0.82949 -9.35803,-1.58557 -14.42904,-1.14531 -1.17714,0.10227 -2.188,0.114 -2.24637,0.0258 -0.17234,-0.25943 0.66085,-1.34806 1.79473,-2.34506 0.91656,-0.80591 1.13879,-0.90929 1.67787,-0.78055 0.6125,0.14631 0.62909,0.1348 1.16614,-0.8195 0.66121,-1.17465 0.63416,-1.15511 1.06592,-0.76978 0.24548,0.2191 0.88218,0.15219 2.13824,-0.22472 3.82402,-1.14732 7.34937,-1.111 11.06719,0.11381 1.44264,0.47535 2.52107,0.69674 2.55581,0.52449 0.0922,-0.45694 -0.51815,-1.92082 -1.63339,-3.91756 -1.16234,-2.08118 -2.72019,-3.64276 -4.5025,-4.51327 -1.00874,-0.49267 -1.14379,-0.64675 -2.20221,-2.51167 -0.9024,-1.5901 -1.33637,-2.15007 -2.1733,-2.80473 -1.31014,-1.02469 -3.50514,-1.81279 -5.65972,-2.03215 -1.91229,-0.1947 -5.83479,0.15823 -6.01056,0.54069 -0.0656,0.14238 0.0846,0.44422 0.33329,0.67075 0.24877,0.22651 0.40416,0.44381 0.34511,0.48305 -0.0589,0.0392 -1.03542,0.24711 -2.16985,0.46208 -3.29982,0.6252 -9.0618,0.52048 -9.52259,-0.17317 -0.1034,-0.15565 -0.11477,-0.33164 -0.0251,-0.39116 0.37297,-0.24777 2.73847,-5.48961 3.65377,-8.09652 1.12265,-3.19761 2.07014,-6.98806 1.76224,-7.05019 -0.11371,-0.0229 -0.86076,0.8628 -1.66014,1.96827 -1.5588,2.15578 -2.31794,2.83059 -2.79934,2.48842 -1.07188,-0.76207 -2.20348,-7.41684 -1.96436,-11.55253 0.42959,-7.43031 2.46381,-15.48332 5.11756,-20.25875 0.47246,-0.85014 0.78862,-1.65243 0.70262,-1.78278 -0.21995,-0.33466 -2.2183,0.49686 -4.75571,1.97849 -1.1905,0.69517 -2.24523,1.2269 -2.34374,1.1816 -0.23901,-0.10981 -0.18,-9.47656 0.0852,-13.50084 0.31202,-4.73695 1.39389,-9.61637 3.38003,-15.24376 1.07126,-3.03534 1.64939,-5.05517 1.49435,-5.22078 -0.66545,-0.7107 -4.70768,2.74355 -7.93924,6.78444 -2.84524,3.55779 -5.28153,8.16429 -7.84837,14.83964 -3.39931,8.84022 -5.24986,17.93881 -5.16002,25.37061 0.0135,1.07575 -0.0878,2.02995 -0.22404,2.12041 -0.32767,0.21766 -1.05376,-0.25421 -3.06412,-1.99112 -2.97315,-2.56884 -4.75289,-4.57418 -6.24969,-7.04213 -1.53803,-2.53587 -1.66378,-2.58875 -2.40071,-1.01064 -1.26256,2.70366 0.22805,7.53889 4.52522,14.67868 1.05978,1.76098 1.93205,3.35673 1.93827,3.54612 0.0224,0.68049 -1.22213,0.76556 -4.04607,0.27608 -4.37509,-0.75824 -7.32156,-2.08822 -12.51633,-5.64965 -2.29602,-1.5741 -3.10161,-1.91827 -3.21175,-1.37209 -0.11245,0.55761 3.39415,6.25934 5.48421,8.91722 1.03719,1.31906 2.97099,3.45185 4.29722,4.73959 4.30354,4.17858 4.34453,4.5211 0.5946,4.97272 -3.38233,0.40728 -5.41643,0.33355 -8.08841,-0.29144 -2.628493,-0.61528 -3.325933,-0.55703 -3.092363,0.25839 0.18449,0.6439 2.453543,2.89307 4.150633,4.11421 2.20637,1.58756 6.7926,4.05671 8.97134,4.82994 1.07179,0.38037 1.93011,0.78377 1.90738,0.89643 -0.0963,0.47719 -1.87753,1.85077 -3.3079,2.55081 -0.84865,0.41531 -2.50248,1.04344 -3.67518,1.39581 -1.17275,0.35233 -2.14979,0.72777 -2.17126,0.83426 -0.0725,0.35928 0.84307,0.67093 3.11033,1.05879 10.44568,1.78692 14.50222,2.77128 15.09452,3.66286 0.31294,0.47109 -4.61546,3.31982 -6.80912,3.93583 -1.31934,0.3705 -1.68229,0.55379 -1.74875,0.88328 -0.0663,0.32941 0.12684,0.52072 0.9315,0.92155 0.55844,0.27817 1.00061,0.57871 0.98265,0.66783 -0.0181,0.0891 -0.65884,0.23586 -1.42416,0.32609 -1.36173,0.16051 -1.78389,0.42217 -1.45985,0.90501 0.49552,0.74063 1.7203,1.48518 3.00671,1.83102 0.80412,0.21615 1.4478,0.46354 1.43041,0.54967 -0.0623,0.30912 -4.60213,1.75531 -7.17126,2.28444 -3.31642,0.68311 -4.94434,0.87461 -6.21057,0.73075 -1.22596,-0.13928 -3.98226,-1.18097 -5.658013,-2.13837 -2.05875,-1.17616 -2.03031,-0.70381 0.10541,1.7554 0.619363,0.71308 1.104253,1.40907 1.077573,1.54668 -0.0268,0.13754 -0.719343,0.41861 -1.539053,0.62447 -1.83061,0.45974 -4.923,2.17069 -4.90517,2.71392 0.009,0.23978 0.38725,0.41357 1.09538,0.50165 l 1.08336,0.13479 -0.69077,0.26836 c -2.19861,0.85425 -3.3034,1.42881 -4.12036,2.14279 -1.07853,0.94264 -2.4005,2.87629 -2.11745,3.09722 0.10851,0.0848 0.72811,0.0332 1.37688,-0.11428 1.45532,-0.33092 3.17238,-0.40184 3.34744,-0.13836 0.0827,0.12454 -0.55927,0.56908 -1.75059,1.21207 -4.62283,2.49523 -5.69822,3.62216 -6.35186,6.6563 -0.4061,1.88516 -0.80642,8.17645 -0.5454,8.57157 0.11055,0.1673 0.49581,0.036 1.13102,-0.38459 z"
       id="path38463-6-0"
       sodipodi:nodetypes="cssssssssscssssssssssssssssssscsssssssssssssscsssssssssssssssssscsssscssssssssssssssssssssscssssscssssssssssssssssssssssssssssscssssssscsscsssssssscc" />
    <path
       style="fill:#3e4750;stroke:none;stroke-width:0.359235;fill-opacity:1"
       d="m 88.037042,212.28507 -8.197696,-0.40189 c 5.163072,-3.74616 8.201962,-10.5087 9.316509,-16.63922 l -0.32286,-0.1575 c -1.911876,2.77933 -4.560209,3.9827 -7.662395,5.05538 2.791348,-4.73531 6.295445,-10.68336 3.536366,-16.26142 l -3.488719,4.69329 c 1.468199,-11.61976 -5.671883,-17.79624 -15.158289,-22.18395 l -0.157508,0.32288 3.464602,9.28455 c -6.195461,-9.78582 -13.73793,-13.34148 -24.891827,-15.34106 l -0.157509,0.32287 c 4.366619,2.36727 11.296933,6.42891 12.804087,11.44259 -3.217913,-2.94564 -10.750751,-6.18842 -15.158849,-5.79641 1.363306,2.39421 3.127837,5.68162 1.782805,8.46409 -1.720896,3.56039 -6.886555,6.25647 -9.489151,9.36033 -5.402614,6.44361 -8.362586,14.19796 -9.758414,22.41919 -3.77507,22.23441 4.7804,45.08229 7.121774,67.02706 1.213583,11.37443 1.453192,23.25256 -3.421509,33.90436 -2.608422,5.6999 -7.351997,9.15068 -11.393087,13.62765 28.91714,-21.44248 21.873249,-60.61992 20.058254,-89.34091 -0.474013,-8.57344 -1.01721,-17.68426 1.563224,-26.01747 2.290289,-7.39515 7.77805,-13.00061 15.306713,-15.20018 5.038442,-1.4719 9.891983,-0.83682 12.2329,4.38496 0.696061,1.55226 1.014275,3.20799 1.262464,4.88113 0.352239,2.37579 0.33511,4.83199 0.03446,7.21145 l -1.165331,-4.16582 c -3.023702,0.0294 -4.312079,3.4962 -7.053072,4.53722 -3.901041,1.48118 -7.600563,0.35028 -11.539572,-0.0177 1.113572,2.76521 1.572721,4.14436 0.228126,6.90626 l 3.386141,1.25222 0.464669,-1.77182 1.133957,0.95288 0.149692,-1.12609 5.134416,-0.6928 c -2.178909,0.93594 -6.451239,3.9287 -8.64668,2.97639 l -0.29931,2.25219 -0.48038,0.16537 -1.141782,-1.75613 c -1.066652,2.71324 -1.39377,3.61564 -4.457297,4.22075 l -0.315022,0.64572 c 2.340716,3.22636 6.302591,5.62281 10.339458,5.8435 1.007597,-2.24082 3.785176,-2.73241 6.002468,-3.29149 5.573141,-1.4053 12.86619,-2.9556 18.378165,-0.8026 l 0.157503,-0.32286 -4.850784,-3.16586 0.157503,-0.32286 6.599147,1.22044 0.157507,-0.32286 -4.205059,-2.85084 0.157506,-0.32285 c 4.56177,0.15818 9.293451,-1.89583 12.481795,-5.10247 m -20.970961,7.75599 -6.725185,2.31496 c 1.547697,-1.88619 4.506644,-4.8266 6.725185,-2.31496"
       id="path1078"
       sodipodi:nodetypes="ccccccccccccccccssccccccccccccccccccccccccscccccccccccc" />
    <path
       style="fill:#3e4750;stroke:none;stroke-width:0.359235;fill-opacity:1"
       d="m 395.10482,212.28507 8.1977,-0.40189 c -5.16307,-3.74616 -8.20196,-10.5087 -9.31651,-16.63922 l 0.32286,-0.1575 c 1.91188,2.77933 4.56021,3.9827 7.6624,5.05538 -2.79135,-4.73531 -6.29545,-10.68336 -3.53637,-16.26142 l 3.48872,4.69329 c -1.4682,-11.61976 5.67188,-17.79624 15.15829,-22.18395 l 0.15751,0.32288 -3.46461,9.28455 c 6.19546,-9.78582 13.73793,-13.34148 24.89183,-15.34106 l 0.15751,0.32287 c -4.36662,2.36727 -11.29693,6.42891 -12.80409,11.44259 3.21792,-2.94564 10.75075,-6.18842 15.15885,-5.79641 -1.36331,2.39421 -3.12784,5.68162 -1.7828,8.46409 1.72089,3.56039 6.88655,6.25647 9.48915,9.36033 5.40261,6.44361 8.36258,14.19796 9.75841,22.41919 3.77507,22.23441 -4.7804,45.08229 -7.12177,67.02706 -1.21359,11.37443 -1.4532,23.25256 3.42151,33.90436 2.60842,5.6999 7.35199,9.15068 11.39308,13.62765 -28.91714,-21.44248 -21.87325,-60.61992 -20.05825,-89.34091 0.47401,-8.57344 1.01721,-17.68426 -1.56323,-26.01747 -2.29028,-7.39515 -7.77805,-13.00061 -15.30671,-15.20018 -5.03844,-1.4719 -9.89198,-0.83682 -12.2329,4.38496 -0.69606,1.55226 -1.01427,3.20799 -1.26246,4.88113 -0.35224,2.37579 -0.33511,4.83199 -0.0345,7.21145 l 1.16533,-4.16582 c 3.0237,0.0294 4.31208,3.4962 7.05307,4.53722 3.90104,1.48118 7.60056,0.35028 11.53957,-0.0177 -1.11357,2.76521 -1.57272,4.14436 -0.22812,6.90626 l -3.38614,1.25222 -0.46467,-1.77182 -1.13396,0.95288 -0.14969,-1.12609 -5.13442,-0.6928 c 2.17891,0.93594 6.45124,3.9287 8.64668,2.97639 l 0.29931,2.25219 0.48038,0.16537 1.14178,-1.75613 c 1.06666,2.71324 1.39377,3.61564 4.4573,4.22075 l 0.31502,0.64572 c -2.34071,3.22636 -6.30259,5.62281 -10.33945,5.8435 -1.0076,-2.24082 -3.78518,-2.73241 -6.00247,-3.29149 -5.57314,-1.4053 -12.86619,-2.9556 -18.37817,-0.8026 l -0.1575,-0.32286 4.85078,-3.16586 -0.1575,-0.32286 -6.59915,1.22044 -0.1575,-0.32286 4.20506,-2.85084 -0.15751,-0.32285 c -4.56177,0.15818 -9.29345,-1.89583 -12.4818,-5.10247 m 20.97097,7.75599 6.72518,2.31496 c -1.5477,-1.88619 -4.50664,-4.8266 -6.72518,-2.31496"
       id="path2384"
       sodipodi:nodetypes="ccccccccccccccccssccccccccccccccccccccccccscccccccccccc" />
    <path
       style="fill:#3e4750;stroke:none;stroke-width:0.359235;fill-opacity:1"
       d="m 349.56604,148.83638 3.91135,-7.21562 c 1.1416,6.27597 5.92188,11.94304 10.96555,15.60185 l 0.28175,-0.22285 c -1.67763,-2.92669 -1.61582,-5.83494 -1.23971,-9.09573 3.06005,4.56628 6.90472,10.30008 13.12742,10.22792 l -2.72025,-5.17671 c 9.8387,6.35408 18.49753,2.59185 26.55972,-4.05984 l -0.22286,-0.28177 -9.86927,-0.89652 c 11.50341,-1.34811 17.97398,-6.60771 24.60537,-15.79643 l -0.22285,-0.28176 c -4.02438,2.9113 -10.68602,7.40003 -15.85798,6.58802 4.04842,-1.62544 10.23277,-7.01181 11.78783,-11.15509 -2.74842,0.19238 -6.47571,0.35973 -8.40158,-2.05735 -2.46439,-3.09267 -2.6583,-8.91636 -4.32944,-12.60618 -3.46945,-7.65971 -9.17793,-13.685036 -15.98445,-18.502535 -18.40828,-13.02901 -42.7079,-15.20856 -63.50312,-22.598665 -10.7786,-3.830436 -21.58958,-8.756912 -29.08094,-17.762641 -4.00875,-4.818985 -5.06571,-10.588922 -7.35183,-16.169901 6.80952,35.349842 45.17459,45.961617 71.85018,56.759872 7.93353,3.284464 16.38142,6.73921 22.77601,12.67302 5.67463,5.26614 8.35168,12.63976 7.075,20.37855 -0.85451,5.17902 -3.52826,9.27917 -9.24877,9.12864 -1.70059,-0.0446 -3.33087,-0.47457 -4.94653,-0.97521 -2.2941,-0.71104 -4.50076,-1.78986 -6.51552,-3.09099 l 4.25969,0.75307 c 1.28256,-2.73836 -1.28471,-5.40064 -1.03644,-8.32213 0.35373,-4.15775 2.9748,-7.00299 5.01185,-10.39439 -2.97474,-0.19336 -4.41672,-0.37656 -6.32424,-2.78434 l -2.59476,2.51022 1.39599,1.18595 -1.34988,0.60964 0.95028,0.62246 -1.59837,4.92824 c 0.0996,-2.36933 -0.74845,-7.51619 1.06046,-9.08292 l -1.90059,-1.24486 0.0589,-0.50462 2.07734,-0.26894 c -1.98399,-2.13617 -2.65582,-2.82172 -1.87497,-5.84523 l -0.44568,-0.56352 c -3.9217,0.71316 -7.79716,3.24699 -9.74379,6.79037 1.5837,1.87841 0.82432,4.59502 0.36834,6.83578 -1.14603,5.63217 -2.90598,12.87749 -7.23308,16.91401 l 0.22285,0.28176 4.95386,-3.002 0.22285,0.28175 -3.95715,5.42026 0.22285,0.28176 4.39034,-2.55632 0.22283,0.28176 c -2.11754,4.04361 -2.31452,9.19812 -0.80432,13.46044 m 2.08764,-22.26159 0.82481,-7.06448 c 1.0302,2.21174 2.39973,6.15201 -0.82481,7.06448"
       id="path2386"
       sodipodi:nodetypes="ccccccccccccccccssccccccccccccccccccccccccscccccccccccc" />
    <path
       style="fill:#3e4750;stroke:none;stroke-width:0.359235;fill-opacity:1"
       d="m 134.47546,148.83638 -3.91135,-7.21562 c -1.1416,6.27597 -5.92188,11.94304 -10.96555,15.60185 l -0.28175,-0.22285 c 1.67763,-2.92669 1.61582,-5.83494 1.23971,-9.09573 -3.06005,4.56628 -6.90472,10.30008 -13.12742,10.22792 l 2.72025,-5.17671 c -9.8387,6.35408 -18.49753,2.59185 -26.55972,-4.05984 l 0.22286,-0.28177 9.86927,-0.89652 C 82.17835,146.369 75.70778,141.1094 69.07639,131.92068 l 0.22285,-0.28176 c 4.02438,2.9113 10.68602,7.40003 15.85798,6.58802 -4.04842,-1.62544 -10.23277,-7.01181 -11.78783,-11.15509 2.74842,0.19238 6.47571,0.35973 8.40158,-2.05735 2.46439,-3.09267 2.6583,-8.91636 4.32944,-12.60618 3.46945,-7.65971 9.17793,-13.685036 15.98445,-18.502535 18.40828,-13.02901 42.7079,-15.20856 63.50312,-22.598665 10.7786,-3.830436 21.58958,-8.756912 29.08094,-17.762641 4.00875,-4.818985 5.06571,-10.588922 7.35183,-16.169901 -6.80952,35.349842 -45.17459,45.961617 -71.85018,56.759872 -7.93353,3.284464 -16.38142,6.73921 -22.77601,12.67302 -5.67463,5.26614 -8.35168,12.63976 -7.075,20.37855 0.85451,5.17902 3.52826,9.27917 9.24877,9.12864 1.70059,-0.0446 3.33087,-0.47457 4.94653,-0.97521 2.2941,-0.71104 4.50076,-1.78986 6.51552,-3.09099 l -4.25969,0.75307 c -1.28256,-2.73836 1.28471,-5.40064 1.03644,-8.32213 -0.35373,-4.15775 -2.9748,-7.00299 -5.01185,-10.39439 2.97474,-0.19336 4.41672,-0.37656 6.32424,-2.78434 l 2.59476,2.51022 -1.39599,1.18595 1.34988,0.60964 -0.95028,0.62246 1.59837,4.92824 c -0.0996,-2.36933 0.74845,-7.51619 -1.06046,-9.08292 l 1.90059,-1.24486 -0.0589,-0.50462 -2.07734,-0.26894 c 1.98399,-2.13617 2.65582,-2.82172 1.87497,-5.84523 l 0.44568,-0.56352 c 3.9217,0.71316 7.79716,3.24699 9.74379,6.79037 -1.5837,1.87841 -0.82432,4.59502 -0.36834,6.83578 1.14603,5.63217 2.90598,12.87749 7.23308,16.91401 l -0.22285,0.28176 -4.95386,-3.002 -0.22285,0.28175 3.95715,5.42026 -0.22285,0.28176 -4.39034,-2.55632 -0.22283,0.28176 c 2.11754,4.04361 2.31452,9.19812 0.80432,13.46044 m -2.08764,-22.26159 -0.82481,-7.06448 c -1.0302,2.21174 -2.39973,6.15201 0.82481,7.06448"
       id="path2388"
       sodipodi:nodetypes="ccccccccccccccccssccccccccccccccccccccccccscccccccccccc" />
    <path
       style="fill:#3e4750;stroke:none;stroke-width:0.359235;fill-opacity:1"
       d="m 307.81694,431.36371 0.15663,-8.20605 c -4.08866,4.8963 -11.04225,7.46816 -17.23437,8.16314 l -0.13519,-0.33281 c 2.90293,-1.71841 4.28365,-4.27876 5.56486,-7.3008 -4.9142,2.4628 -11.08683,5.5542 -16.4643,2.42209 l 4.91971,-3.1614 c -11.69272,0.67444 -17.36923,-6.86923 -21.10152,-16.63211 l 0.33284,-0.1352 9.0274,4.08811 c -9.34176,-6.84674 -12.37615,-14.61359 -13.61242,-25.87767 l 0.33284,-0.13519 c 2.06477,4.51752 5.64562,11.70807 10.54517,13.55274 -2.71994,-3.41082 -5.44283,-11.14677 -4.7519,-15.518 2.29593,1.523 5.45571,3.50705 8.32322,2.3544 3.66921,-1.47473 6.7104,-6.44505 9.9841,-8.8305 6.79617,-4.95181 14.73389,-7.37748 23.03102,-8.21088 22.43969,-2.25396 44.65273,7.83578 66.38742,11.66441 11.26553,1.98445 23.09985,3.03145 34.05856,-1.10744 5.86412,-2.21468 9.62955,-6.71255 14.37103,-10.43976 -23.35974,27.39166 -61.96732,17.69927 -90.49833,13.9349 -8.52134,-1.05606 -17.57413,-2.21771 -26.06355,-0.21008 -7.5338,1.78197 -13.49954,6.87575 -16.20612,14.23737 -1.8112,4.92665 -1.50773,9.81214 3.54273,12.50282 1.50132,0.80002 3.13157,1.23014 4.78396,1.59156 2.34632,0.51302 4.798,0.66299 7.19239,0.52489 l -4.0769,-1.44599 c 0.23505,-3.0147 3.7814,-4.06428 5.00645,-6.72813 1.7431,-3.79124 0.86646,-7.55913 0.76725,-11.51404 2.68307,1.29908 4.0278,1.85098 6.87476,0.69736 l 1.01899,3.46347 -1.79933,0.34307 0.87355,1.19616 -1.13367,0.0727 -1.04043,5.07541 c 1.08197,-2.1102 4.35841,-6.16908 3.55764,-8.42421 l 2.26733,-0.14542 0.19766,-0.46802 -1.6744,-1.25859 c 2.77951,-0.87964 3.70208,-1.14461 4.51416,-4.15988 l 0.66565,-0.27038 c 3.05968,2.55476 5.18109,6.67046 5.1267,10.71298 -2.30417,0.85285 -2.98356,3.59056 -3.69216,5.76468 -1.78114,5.46466 -3.8239,12.63536 -2.05081,18.28101 l -0.33282,0.13519 -2.82858,-5.05489 -0.33283,0.1352 0.76879,6.66687 -0.33283,0.13517 -2.55821,-4.38923 -0.33281,0.13518 c -0.1525,4.56198 -2.52362,9.14298 -5.9397,12.10583 m 9.16447,-20.39484 2.76702,-6.55215 c -1.9871,1.41583 -5.12196,4.16791 -2.76702,6.55215"
       id="path2392"
       sodipodi:nodetypes="ccccccccccccccccssccccccccccccccccccccccccscccccccccccc" />
    <path
       style="fill:#3e4750;stroke:none;stroke-width:0.359235;fill-opacity:1"
       d="m 178.72422,431.36371 -0.15663,-8.20605 c 4.08866,4.8963 11.04225,7.46816 17.23437,8.16314 l 0.13519,-0.33281 c -2.90293,-1.71841 -4.28365,-4.27876 -5.56486,-7.3008 4.9142,2.4628 11.08683,5.5542 16.4643,2.42209 l -4.91971,-3.1614 c 11.69272,0.67444 17.36923,-6.86923 21.10152,-16.63211 l -0.33284,-0.1352 -9.0274,4.08811 c 9.34176,-6.84674 12.37615,-14.61359 13.61242,-25.87767 l -0.33284,-0.13519 c -2.06477,4.51752 -5.64562,11.70807 -10.54517,13.55274 2.71994,-3.41082 5.44283,-11.14677 4.7519,-15.518 -2.29593,1.523 -5.45571,3.50705 -8.32322,2.3544 -3.66921,-1.47473 -6.7104,-6.44505 -9.9841,-8.8305 -6.79617,-4.95181 -14.73389,-7.37748 -23.03102,-8.21088 -22.43969,-2.25396 -44.65273,7.83578 -66.38742,11.66441 -11.26553,1.98445 -23.09985,3.03145 -34.05856,-1.10744 -5.86412,-2.21468 -9.62955,-6.71255 -14.37103,-10.43976 23.35974,27.39166 61.96732,17.69927 90.49833,13.9349 8.52134,-1.05606 17.57413,-2.21771 26.06355,-0.21008 7.5338,1.78197 13.49954,6.87575 16.20612,14.23737 1.8112,4.92665 1.50773,9.81214 -3.54273,12.50282 -1.50132,0.80002 -3.13157,1.23014 -4.78396,1.59156 -2.34632,0.51302 -4.798,0.66299 -7.19239,0.52489 l 4.0769,-1.44599 c -0.23505,-3.0147 -3.7814,-4.06428 -5.00645,-6.72813 -1.7431,-3.79124 -0.86646,-7.55913 -0.76725,-11.51404 -2.68307,1.29908 -4.0278,1.85098 -6.87476,0.69736 l -1.01899,3.46347 1.79933,0.34307 -0.87355,1.19616 1.13367,0.0727 1.04043,5.07541 c -1.08197,-2.1102 -4.35841,-6.16908 -3.55764,-8.42421 l -2.26733,-0.14542 -0.19766,-0.46802 1.6744,-1.25859 c -2.77951,-0.87964 -3.70208,-1.14461 -4.51416,-4.15988 l -0.66565,-0.27038 c -3.05968,2.55476 -5.18109,6.67046 -5.1267,10.71298 2.30417,0.85285 2.98356,3.59056 3.69216,5.76468 1.78114,5.46466 3.8239,12.63536 2.05081,18.28101 l 0.33282,0.13519 2.82858,-5.05489 0.33283,0.1352 -0.76879,6.66687 0.33283,0.13517 2.55821,-4.38923 0.33281,0.13518 c 0.1525,4.56198 2.52362,9.14298 5.9397,12.10583 m -9.16447,-20.39484 -2.76702,-6.55215 c 1.9871,1.41583 5.12196,4.16791 2.76702,6.55215"
       id="path2394"
       sodipodi:nodetypes="ccccccccccccccccssccccccccccccccccccccccccscccccccccccc" />
  </g>
</svg>
